<svg width="64" height="64" viewBox="0 0 64 64" fill="none" xmlns="http://www.w3.org/2000/svg">
<path d="M44 0H20C13.2 0 8 3.78182 8 8.72727V55.2727C8 60.2182 13.2 64 20 64H44C50.8 64 56 60.2182 56 55.2727V8.72727C56 3.78182 50.8 0 44 0ZM48 55.2727C48 57.0182 46.4 58.1818 44 58.1818H20C17.6 58.1818 16 57.0182 16 55.2727V8.72727C16 6.98182 17.6 5.81818 20 5.81818V6.69091C20 11.0545 24.8 14.5455 30.8 14.5455H33.2C39.2 14.5455 44 11.0545 44 6.69091V5.81818C46.4 5.81818 48 6.98182 48 8.72727V55.2727Z" fill="#ACACAC"/>
<path d="M41 47H25C22.6 47 21 48 21 49.5C21 51 22.6 52 25 52H41C43.4 52 45 51 45 49.5C45 48 43.4 47 41 47Z" fill="#ACACAC"/>
</svg>
