<svg width="64" height="64" viewBox="0 0 64 64" fill="none" xmlns="http://www.w3.org/2000/svg">
<path d="M24.0003 5.33335H16.0003V4.00002C16.0003 3.26402 16.5977 2.66669 17.3337 2.66669H22.667C23.403 2.66669 24.0003 3.26402 24.0003 4.00002V5.33335ZM48.0003 4.00002C48.0003 3.26402 47.403 2.66669 46.667 2.66669H41.3337C40.5977 2.66669 40.0003 3.26402 40.0003 4.00002V5.33335H48.0003V4.00002ZM20.0003 53.3334H17.3337C17.3337 56.552 19.6283 59.2453 22.667 59.8653V57.3334C22.667 57.252 22.6857 57.176 22.691 57.0947C21.1297 56.5494 20.0003 55.0787 20.0003 53.3334ZM41.3097 57.0947C41.315 57.176 41.3337 57.252 41.3337 57.3334V59.8653C44.3723 59.2453 46.667 56.5533 46.667 53.3334H44.0003C44.0003 55.0787 42.871 56.5494 41.3097 57.0947ZM37.3337 56H26.667C25.931 56 25.3337 56.5974 25.3337 57.3334V60C25.3337 60.736 25.931 61.3334 26.667 61.3334H37.3337C38.0697 61.3334 38.667 60.736 38.667 60V57.3334C38.667 56.5974 38.0697 56 37.3337 56ZM31.9243 24.008C31.951 24.0067 31.975 24 32.0003 24C34.2057 24 36.0003 22.2054 36.0003 20C36.0003 17.7947 34.2057 16 32.0003 16C30.607 16 29.263 16.2174 27.999 16.6147C28.7657 16.9387 29.4897 17.3947 30.115 18.0187C31.7403 19.6454 32.3323 21.904 31.9243 24.008ZM28.1817 25.6227C28.1937 25.6107 28.203 25.5947 28.215 25.5814C28.2203 25.5747 28.223 25.5667 28.2283 25.5614C29.7883 24.0014 29.7883 21.464 28.2283 19.904C26.6963 18.372 24.227 18.3534 22.6617 19.8307C21.6737 20.8014 20.8403 21.9254 20.191 23.1627C20.959 22.8547 21.7897 22.6667 22.667 22.6667C24.9657 22.6667 26.983 23.8467 28.1817 25.6227ZM29.3337 29.3334C29.3337 30.804 30.5297 32 32.0003 32C33.471 32 34.667 30.804 34.667 29.3334C34.667 27.8627 33.471 26.6667 32.0003 26.6667C30.5297 26.6667 29.3337 27.8627 29.3337 29.3334ZM10.667 29.3334V49.3334C10.667 50.0694 11.2643 50.6667 12.0003 50.6667H32.0003C20.2377 50.6667 10.667 41.096 10.667 29.3334ZM32.0003 8.00002H12.0003C11.2643 8.00002 10.667 8.59735 10.667 9.33335V29.3334C10.667 17.5707 20.2377 8.00002 32.0003 8.00002ZM32.0003 50.6667H52.0003C52.7363 50.6667 53.3337 50.0694 53.3337 49.3334V29.3334C53.3337 41.096 43.763 50.6667 32.0003 50.6667ZM26.675 29.4094C26.6737 29.3827 26.667 29.3587 26.667 29.3334C26.667 27.128 24.8723 25.3334 22.667 25.3334C20.4617 25.3334 18.667 27.128 18.667 29.3334C18.667 30.7267 18.8843 32.0707 19.2817 33.3347C19.6057 32.568 20.0617 31.8427 20.6857 31.2187C22.3123 29.5934 24.5723 29.0014 26.675 29.4094ZM35.711 25.5147C35.723 25.5267 35.739 25.536 35.751 25.548C35.7577 25.5534 35.7657 25.556 35.771 25.5614C37.331 27.1214 39.8683 27.1214 41.4283 25.5614C42.9603 24.0294 42.979 21.5587 41.5003 19.9934C40.5297 19.0054 39.4057 18.172 38.1683 17.5227C38.479 18.292 38.667 19.1227 38.667 20C38.667 22.2987 37.487 24.316 35.711 25.5147ZM50.667 29.3334C50.667 39.6267 42.2937 48 32.0003 48C21.707 48 13.3337 39.6267 13.3337 29.3334C13.3337 19.04 21.707 10.6667 32.0003 10.6667C42.2937 10.6667 50.667 19.04 50.667 29.3334ZM48.0003 29.3334C48.0003 20.5107 40.823 13.3334 32.0003 13.3334C23.1777 13.3334 16.0003 20.5107 16.0003 29.3334C16.0003 38.156 23.1777 45.3334 32.0003 45.3334C40.823 45.3334 48.0003 38.156 48.0003 29.3334ZM37.3257 29.2574C37.327 29.284 37.3337 29.308 37.3337 29.3334C37.3337 31.5387 39.1283 33.3334 41.3337 33.3334C43.539 33.3334 45.3337 31.5387 45.3337 29.3334C45.3337 27.94 45.1163 26.596 44.719 25.332C44.395 26.0987 43.939 26.824 43.315 27.448C41.6883 29.0734 39.4297 29.6654 37.3257 29.2574ZM52.0003 8.00002H32.0003C43.763 8.00002 53.3337 17.5707 53.3337 29.3334V9.33335C53.3337 8.59735 52.7363 8.00002 52.0003 8.00002ZM35.819 33.044C35.807 33.0574 35.7977 33.072 35.7843 33.0854C35.779 33.0907 35.7777 33.0987 35.771 33.1054C34.211 34.6654 34.211 37.2027 35.771 38.7627C37.303 40.2947 39.7737 40.3134 41.3403 38.8347C42.327 37.864 43.1603 36.74 43.8097 35.504C43.0417 35.812 42.211 36 41.3337 36C39.035 36 37.0177 34.82 35.819 33.044ZM28.2897 33.152C28.2763 33.14 28.2617 33.1307 28.2483 33.1187C28.243 33.1134 28.235 33.112 28.2283 33.1054C26.6683 31.5454 24.131 31.5454 22.571 33.1054C21.039 34.6374 21.0203 37.108 22.4977 38.6734C23.4683 39.6614 24.5923 40.4947 25.8297 41.144C25.5217 40.3747 25.3337 39.544 25.3337 38.6667C25.3337 36.368 26.5137 34.3507 28.2897 33.152ZM32.0763 34.6587C32.0497 34.66 32.0257 34.6667 32.0003 34.6667C29.795 34.6667 28.0003 36.4614 28.0003 38.6667C28.0003 40.872 29.795 42.6667 32.0003 42.6667C33.3937 42.6667 34.7377 42.4494 36.0017 42.052C35.235 41.728 34.5097 41.272 33.8857 40.648C32.2603 39.0214 31.6683 36.7614 32.0763 34.6587Z" fill="#ACACAC"/>
</svg>
