<svg width="64" height="64" viewBox="0 0 64 64" fill="none" xmlns="http://www.w3.org/2000/svg">
<path d="M40 51H38" stroke="#ACACAC" stroke-width="2" stroke-miterlimit="10"/>
<path d="M36 51H15C13.9 51 13 50.1 13 49V15C13 13.9 13.9 13 15 13H49C50.1 13 51 13.9 51 15V49C51 50.1 50.1 51 49 51H42" stroke="#ACACAC" stroke-width="2" stroke-miterlimit="10"/>
<path d="M25 17H27" stroke="#ACACAC" stroke-width="2" stroke-miterlimit="10"/>
<path d="M29 17H45C46.1 17 47 17.9 47 19V45C47 46.1 46.1 47 45 47H19C17.9 47 17 46.1 17 45V19C17 17.9 17.9 17 19 17H23" stroke="#ACACAC" stroke-width="2" stroke-miterlimit="10"/>
<path d="M17 10V2" stroke="#ACACAC" stroke-width="2" stroke-miterlimit="10"/>
<path d="M27 10V2" stroke="#ACACAC" stroke-width="2" stroke-miterlimit="10"/>
<path d="M37 10V2" stroke="#ACACAC" stroke-width="2" stroke-miterlimit="10"/>
<path d="M47 10V2" stroke="#ACACAC" stroke-width="2" stroke-miterlimit="10"/>
<path d="M17 62V54" stroke="#ACACAC" stroke-width="2" stroke-miterlimit="10"/>
<path d="M27 62V54" stroke="#ACACAC" stroke-width="2" stroke-miterlimit="10"/>
<path d="M37 62V54" stroke="#ACACAC" stroke-width="2" stroke-miterlimit="10"/>
<path d="M47 62V54" stroke="#ACACAC" stroke-width="2" stroke-miterlimit="10"/>
<path d="M54 17H62" stroke="#ACACAC" stroke-width="2" stroke-miterlimit="10"/>
<path d="M54 27H62" stroke="#ACACAC" stroke-width="2" stroke-miterlimit="10"/>
<path d="M54 37H62" stroke="#ACACAC" stroke-width="2" stroke-miterlimit="10"/>
<path d="M54 47H62" stroke="#ACACAC" stroke-width="2" stroke-miterlimit="10"/>
<path d="M2 17H10" stroke="#ACACAC" stroke-width="2" stroke-miterlimit="10"/>
<path d="M2 27H10" stroke="#ACACAC" stroke-width="2" stroke-miterlimit="10"/>
<path d="M2 37H10" stroke="#ACACAC" stroke-width="2" stroke-miterlimit="10"/>
<path d="M2 47H10" stroke="#ACACAC" stroke-width="2" stroke-miterlimit="10"/>
<path d="M17 23H33" stroke="#ACACAC" stroke-width="2" stroke-miterlimit="10" stroke-linejoin="round"/>
<path d="M35 33C36.1046 33 37 32.1046 37 31C37 29.8954 36.1046 29 35 29C33.8954 29 33 29.8954 33 31C33 32.1046 33.8954 33 35 33Z" stroke="#ACACAC" stroke-width="2" stroke-miterlimit="10"/>
<path d="M23 36C24.1046 36 25 35.1046 25 34C25 32.8954 24.1046 32 23 32C21.8954 32 21 32.8954 21 34C21 35.1046 21.8954 36 23 36Z" stroke="#ACACAC" stroke-width="2" stroke-miterlimit="10"/>
<path d="M42 18V31H36" stroke="#ACACAC" stroke-width="2" stroke-miterlimit="10" stroke-linejoin="round"/>
<path d="M17 28H29V38H39" stroke="#ACACAC" stroke-width="2" stroke-miterlimit="10" stroke-linejoin="round"/>
<path d="M34 47V42H23V36" stroke="#ACACAC" stroke-width="2" stroke-miterlimit="10" stroke-linejoin="round"/>
<path d="M43 36H39V40H43V36Z" stroke="#ACACAC" stroke-width="2" stroke-miterlimit="10" stroke-linejoin="round"/>
<path d="M37 21H33V25H37V21Z" stroke="#ACACAC" stroke-width="2" stroke-miterlimit="10" stroke-linejoin="round"/>
</svg>
