<svg width="64" height="65" viewBox="0 0 64 65" fill="none" xmlns="http://www.w3.org/2000/svg">
<g clip-path="url(#clip0_112_6700)">
<path d="M59.0495 33.3992C65.6502 25.8499 65.6502 13.5665 59.0495 6.0172C55.8485 2.35419 51.5899 0.337128 47.0605 0.337128C42.5312 0.337128 38.2699 2.35419 35.0676 6.0172L32 9.52481L28.9324 6.0172C25.7301 2.35419 21.4715 0.337128 16.9408 0.337128C12.4114 0.337128 8.1528 2.35419 4.9505 6.0172C-1.65017 13.5665 -1.65017 25.8499 4.9505 33.3992L32 64.3371L59.0495 33.3992ZM6.84707 8.13836C9.54388 5.05317 13.1303 3.35443 16.9408 3.35443C20.7526 3.35443 24.339 5.05317 27.0358 8.13836L32 13.8169L36.9642 8.13836C39.661 5.05317 43.2474 3.35443 47.0592 3.35443C50.871 3.35443 54.4561 5.05317 57.1529 8.13836C62.732 14.5184 62.732 24.898 57.1529 31.2781L32 60.0465L6.84707 31.2781C1.26805 24.898 1.26805 14.5169 6.84707 8.13836Z" fill="#E5E5E5"/>
</g>
<defs>
<clipPath id="clip0_112_6700">
<rect width="64" height="64" fill="white" transform="translate(0 0.337128)"/>
</clipPath>
</defs>
</svg>
