<svg width="64" height="64" viewBox="0 0 64 64" fill="none" xmlns="http://www.w3.org/2000/svg">
<path d="M1.7304 15.201C1.53778 15.8771 1.44147 22.7348 1.53778 30.3653L1.8267 44.3705L4.81221 44.6602C6.93096 44.8534 8.36186 44.8534 8.36186 47.7572C8.84339 49.3992 9.82017 48.7169 19.6435 48.7169C29.5631 48.7169 30.4298 48.5237 30.9114 46.7851C31.5855 44.2739 32.7412 44.2739 33.4153 46.7851C34.0895 49.393 37.9418 49.393 38.6159 46.7851C39.0974 45.0466 40.0605 44.8534 50.8469 44.6602L62.5 44.3705V29.3994V14.4283L32.356 14.1386C8.27926 13.9454 2.11562 14.1386 1.7304 15.201ZM61.0554 29.3994V42.9216H32.1633H3.2713V29.3994V15.8771H32.1633H61.0554V29.3994ZM11.9389 45.8193C11.9389 46.3022 11.5537 46.7851 10.9758 46.7851C10.4943 46.7851 10.0128 46.3022 10.0128 45.8193C10.0128 45.2397 10.4943 44.8534 10.9758 44.8534C11.5537 44.8534 11.9389 45.2397 11.9389 45.8193ZM29.2741 45.8193C29.2741 46.3988 26.096 46.7851 21.5696 46.7851C17.0432 46.7851 13.8651 46.3988 13.8651 45.8193C13.8651 45.2397 17.0432 44.8534 21.5696 44.8534C26.096 44.8534 29.2741 45.2397 29.2741 45.8193ZM36.9787 45.8193C36.9787 46.3022 36.5935 46.7851 36.0156 46.7851C35.5341 46.7851 35.0526 46.3022 35.0526 45.8193C35.0526 45.2397 35.5341 44.8534 36.0156 44.8534C36.5935 44.8534 36.9787 45.2397 36.9787 45.8193Z" fill="#ACACAC"/>
<path d="M5.19775 18.7747C5.19775 19.2577 5.67929 19.7406 6.16082 19.7406C6.73866 19.7406 7.12389 19.2577 7.12389 18.7747C7.12389 18.1952 6.73866 17.8089 6.16082 17.8089C5.67929 17.8089 5.19775 18.1952 5.19775 18.7747Z" fill="#ACACAC"/>
<path d="M12.4207 18.6781C8.18318 20.5133 5.6792 24.4734 5.6792 29.4959C5.6792 33.5526 6.16073 34.6151 8.85732 37.3195L11.9391 40.5069L30.5264 40.7967C43.5278 40.9898 49.9803 40.7001 51.9065 39.9274C54.1215 39.0581 54.4104 38.6717 53.1585 38.382C51.9065 38.0922 51.4249 37.0297 51.4249 34.5185C51.4249 31.1379 51.4249 31.0413 53.3511 32.7799C54.4104 33.7458 55.2772 35.1946 55.2772 36.0639C55.2772 37.3195 55.4698 37.3195 57.0107 35.8707C58.0701 34.7116 58.6479 32.6833 58.6479 29.3993C58.6479 25.2461 58.6479 23.6041 56.4329 20.5133L52.4224 18.4187L33.3193 18.0986C22.9181 18.002 13.4801 18.2918 12.4207 18.6781ZM19.6437 20.5133C19.6437 20.8996 18.1028 22.7348 16.2729 24.57L12.9022 27.8539L10.6872 25.729C8.5684 23.5075 8.5684 23.5075 10.4945 22.0587C12.2281 20.803 12.4207 20.803 12.7096 22.0587C13.1911 24.2802 14.8283 23.9904 14.8283 21.6723C14.8283 20.2235 15.5025 19.7406 17.236 19.7406C18.5843 19.7406 19.6437 20.1269 19.6437 20.5133ZM38.8087 22.2519C36.9789 24.1836 36.4974 25.8256 36.4974 29.3993C36.4974 32.9731 36.9789 34.6151 38.8087 36.5468L41.1201 39.0581H32.1636H23.207L25.5184 36.5468C28.7928 33.0697 28.7928 25.729 25.5184 22.2519L23.207 19.7406H32.1636H41.1201L38.8087 22.2519ZM50.4619 20.5133C50.4619 20.9962 49.4025 22.3484 48.0542 23.6041L45.6465 25.8256V22.8314C45.6465 20.2235 46.0318 19.7406 48.0542 19.7406C49.4025 19.7406 50.4619 20.1269 50.4619 20.5133ZM43.7204 24.2802V27.8539L41.6016 25.729C39.3866 23.5075 39.3866 23.5075 41.2164 22.0587C43.7204 20.2235 43.7204 20.2235 43.7204 24.2802ZM24.459 23.6041C25.4221 25.3427 25.2295 25.5358 21.9551 25.5358C18.488 25.5358 18.3917 25.5358 20.1252 23.6041C21.0883 22.5416 22.244 21.6723 22.6292 21.6723C23.1107 21.6723 23.8812 22.5416 24.459 23.6041ZM55.2772 23.6041C56.2403 25.3427 56.0477 25.5358 52.7732 25.5358C49.3062 25.5358 49.2099 25.5358 50.9434 23.6041C51.9065 22.5416 53.0622 21.6723 53.4474 21.6723C53.9289 21.6723 54.6994 22.5416 55.2772 23.6041ZM10.9761 28.9164L13.1911 31.3311H10.2056C7.60534 31.3311 7.1238 30.9447 7.1238 28.9164C7.1238 27.5642 7.50903 26.5017 7.89426 26.5017C8.37579 26.5017 9.72409 27.5642 10.9761 28.9164ZM41.7943 28.9164L44.0093 31.3311H41.0238C38.4235 31.3311 37.942 30.9447 37.942 28.9164C37.942 27.5642 38.3272 26.5017 38.7124 26.5017C39.194 26.5017 40.5423 27.5642 41.7943 28.9164ZM18.2954 28.53C19.2585 30.172 17.0434 32.0072 15.6951 30.655C14.5394 29.4959 15.3099 27.4676 16.7545 27.4676C17.236 27.4676 17.9102 27.9505 18.2954 28.53ZM26.3852 29.8823C26.3852 31.2345 25.9999 32.297 25.6147 32.297C25.1332 32.297 23.7849 31.2345 22.5329 29.8823L20.3178 27.4676H23.3033C25.9036 27.4676 26.3852 27.8539 26.3852 29.8823ZM49.1136 28.53C50.0766 30.172 47.8616 32.0072 46.5133 30.655C45.3576 29.4959 46.1281 27.4676 47.5727 27.4676C48.0542 27.4676 48.7283 27.9505 49.1136 28.53ZM57.2033 29.8823C57.2033 31.2345 56.8181 32.297 56.4329 32.297C55.9514 32.297 54.6031 31.2345 53.3511 29.8823L51.136 27.4676H54.1215C56.7218 27.4676 57.2033 27.8539 57.2033 29.8823ZM24.459 35.2912C24.459 35.7741 23.5923 36.5468 22.5329 37.1263C20.7994 38.0922 20.6068 37.899 20.6068 34.6151C20.6068 31.1379 20.6068 31.0413 22.5329 32.7799C23.5923 33.7458 24.459 34.9048 24.459 35.2912ZM13.3837 35.1946C12.4207 36.257 11.265 37.1263 10.8798 37.1263C10.3982 37.1263 9.62778 36.257 9.04994 35.1946C8.08687 33.456 8.27948 33.2628 11.5539 33.2628C15.021 33.2628 15.1173 33.2628 13.3837 35.1946ZM18.6806 36.1605C18.6806 38.5751 18.2954 39.0581 16.2729 39.0581C13.2874 39.0581 13.2874 38.382 15.984 35.4843C18.5843 32.6833 18.6806 32.6833 18.6806 36.1605ZM44.2019 35.1946C43.2389 36.257 42.0832 37.1263 41.6979 37.1263C41.2164 37.1263 40.446 36.257 39.8681 35.1946C38.9051 33.456 39.0977 33.2628 42.3721 33.2628C45.8391 33.2628 45.9354 33.2628 44.2019 35.1946ZM49.4988 36.1605C49.4988 38.5751 49.1136 39.0581 47.0911 39.0581C44.1056 39.0581 44.1056 38.382 46.8022 35.4843C49.4025 32.6833 49.4988 32.6833 49.4988 36.1605Z" fill="#ACACAC"/>
<path d="M57.2031 18.7747C57.2031 19.2577 57.6847 19.7406 58.1662 19.7406C58.744 19.7406 59.1293 19.2577 59.1293 18.7747C59.1293 18.1952 58.744 17.8089 58.1662 17.8089C57.6847 17.8089 57.2031 18.1952 57.2031 18.7747Z" fill="#ACACAC"/>
<path d="M5.19775 40.024C5.19775 40.5069 5.67929 40.9899 6.16082 40.9899C6.73866 40.9899 7.12389 40.5069 7.12389 40.024C7.12389 39.4445 6.73866 39.0581 6.16082 39.0581C5.67929 39.0581 5.19775 39.4445 5.19775 40.024Z" fill="#ACACAC"/>
<path d="M57.2031 40.024C57.2031 40.5069 57.6847 40.9899 58.1662 40.9899C58.744 40.9899 59.1293 40.5069 59.1293 40.024C59.1293 39.4445 58.744 39.0581 58.1662 39.0581C57.6847 39.0581 57.2031 39.4445 57.2031 40.024Z" fill="#ACACAC"/>
</svg>
