<svg width="64" height="64" viewBox="0 0 64 64" fill="none" xmlns="http://www.w3.org/2000/svg">
<g opacity="0.6">
<path d="M52.1036 41.9728C48.0889 41.9728 44.8223 37.0521 44.8223 31.0045C44.8223 24.9569 48.0889 20.0363 52.1036 20.0363C56.1184 20.0363 59.385 24.9569 59.385 31.0045C59.385 37.0521 56.1184 41.9728 52.1036 41.9728ZM52.1036 21.8617C48.7633 21.8617 46.0446 25.9569 46.0446 30.9886C46.0446 36.0204 48.7633 40.1156 52.1036 40.1156C55.444 40.1156 58.1627 36.0204 58.1627 30.9886C58.1627 25.9569 55.444 21.8617 52.1036 21.8617Z" fill="#ACACAC"/>
<path d="M53.6532 30.0519C53.4741 30.0519 53.2949 29.9408 53.179 29.7027C52.9683 29.3059 53.0104 28.7186 53.2739 28.4011C53.8956 27.6551 54.296 26.5757 54.3803 25.3853C54.4751 24.1948 54.2433 23.0043 53.748 22.0678C53.5373 21.671 53.5794 21.0837 53.8429 20.7662C54.1063 20.4487 54.4962 20.5122 54.7069 20.9091C56.1611 23.6551 55.8555 27.6551 54.0431 29.8456C53.9166 29.9884 53.7902 30.0519 53.6532 30.0519Z" fill="#ACACAC"/>
<path d="M54.842 32.7189C54.5364 32.7189 54.2203 32.6712 53.9042 32.5601C53.5775 32.449 53.3668 31.957 53.4405 31.4649C53.5143 30.9728 53.8409 30.6554 54.1676 30.7665C55.7798 31.322 57.3921 29.7982 57.7503 27.3697C57.8241 26.8776 58.1507 26.5601 58.4774 26.6712C58.8041 26.7824 59.0148 27.2744 58.9411 27.7665C58.509 30.7189 56.7598 32.7189 54.842 32.7189Z" fill="#ACACAC"/>
<path d="M56.2152 37.6869C54.6451 37.6869 53.1383 36.3535 52.4112 34.0837C52.2637 33.6234 52.3901 33.0678 52.6957 32.8615C53.0013 32.6393 53.3701 32.8297 53.5071 33.2901C54.2236 35.5282 56.015 36.4805 57.5113 35.4012C57.8169 35.1789 58.1857 35.3694 58.3227 35.8297C58.4597 36.2901 58.3438 36.8456 58.0382 37.052C57.4586 37.4805 56.8369 37.6869 56.2152 37.6869Z" fill="#ACACAC"/>
<path d="M52.9264 41.8615C52.8421 41.8615 52.7473 41.8297 52.663 41.7663C51.6514 41.0361 50.8821 39.7345 50.5133 38.1472C50.1445 36.544 50.2077 34.8139 50.6925 33.2901C50.84 32.8297 51.2088 32.6393 51.5038 32.8615C51.8094 33.0837 51.9359 33.6393 51.7884 34.0837C51.4406 35.1631 51.3985 36.4012 51.6619 37.5282C51.9253 38.6551 52.4733 39.5758 53.1898 40.0996C53.4954 40.3218 53.6219 40.8774 53.4743 41.3218C53.369 41.671 53.1477 41.8615 52.9264 41.8615Z" fill="#ACACAC"/>
<path d="M47.4481 39.0839C47.1741 39.0839 46.9212 38.7981 46.8474 38.3696C46.5945 36.7188 46.7842 35.0045 47.3848 33.5759C47.9855 32.1315 48.9233 31.1315 50.0192 30.7664C50.3458 30.6553 50.6725 30.9569 50.7463 31.4648C50.82 31.9569 50.6198 32.4489 50.2826 32.5601C49.5029 32.8299 48.839 33.5442 48.4175 34.5601C47.996 35.5759 47.859 36.7981 48.0381 37.9728C48.1119 38.4648 47.9117 38.9569 47.5745 39.068C47.5429 39.0839 47.4902 39.0839 47.4481 39.0839Z" fill="#ACACAC"/>
<path d="M52.1036 28.9252C51.7664 28.9252 51.4925 28.5125 51.4925 28.0046C51.4925 25.5125 50.1437 23.4966 48.4998 23.4966C48.1626 23.4966 47.8887 23.0839 47.8887 22.576C47.8887 22.0681 48.1626 21.6554 48.4998 21.6554C50.8286 21.6554 52.7148 24.5125 52.7148 28.0046C52.7148 28.5125 52.4408 28.9252 52.1036 28.9252Z" fill="#ACACAC"/>
<path d="M45.4784 30.9093C45.3414 30.9093 45.215 30.8458 45.0991 30.703C44.8356 30.3855 44.7935 29.8141 45.0042 29.4014C46.4584 26.6553 49.1138 26.2109 50.9368 28.4014C51.2002 28.7188 51.2424 29.2903 51.0316 29.703C50.8209 30.0998 50.4415 30.1633 50.1676 29.8458C49.5459 29.0998 48.7555 28.7506 47.9652 28.8934C47.1749 29.0363 46.4584 29.6236 45.9631 30.5601C45.8367 30.7982 45.6575 30.9093 45.4784 30.9093Z" fill="#ACACAC"/>
<path d="M52.1047 34.9091C50.6716 34.9091 49.502 33.1472 49.502 30.9884C49.502 28.8297 50.6716 27.0678 52.1047 27.0678C53.5378 27.0678 54.7074 28.8297 54.7074 30.9884C54.6969 33.1472 53.5378 34.9091 52.1047 34.9091ZM52.1047 28.925C51.346 28.925 50.7243 29.8615 50.7243 31.0043C50.7243 32.1472 51.346 33.0837 52.1047 33.0837C52.8634 33.0837 53.4851 32.1472 53.4851 31.0043C53.4851 29.8615 52.8634 28.925 52.1047 28.925Z" fill="#ACACAC"/>
<path d="M35.8991 41.9728C35.0455 41.9728 34.1815 41.7347 33.349 41.2744C31.526 40.2585 30.0824 38.2267 29.271 35.5601C28.4596 32.8934 28.3964 29.9093 29.0708 27.1632C29.7452 24.4172 31.094 22.2426 32.8643 21.0204C34.6346 19.7982 36.6156 19.7029 38.4386 20.7188C40.2616 21.7347 41.7052 23.7664 42.5166 26.4331C43.328 29.0998 43.3912 32.0839 42.7168 34.8299C42.0319 37.5759 40.6936 39.7506 38.9233 40.9728C37.9644 41.6394 36.9317 41.9728 35.8991 41.9728ZM35.8885 21.8617C35.0455 21.8617 34.192 22.1315 33.3806 22.6871C31.9054 23.7029 30.7884 25.5125 30.2194 27.7982C29.6504 30.0839 29.7136 32.5601 30.388 34.7823C31.3996 38.1315 33.6125 40.1156 35.9096 40.1156C36.7526 40.1156 37.6061 39.8458 38.4175 39.2902C39.8928 38.2744 41.0097 36.4648 41.5788 34.1791C42.1478 31.8934 42.0846 29.4172 41.4102 27.195C40.3986 23.8458 38.1857 21.8617 35.8885 21.8617Z" fill="#ACACAC"/>
<path d="M36.7946 29.2426C36.6997 29.2426 36.6049 29.2108 36.5206 29.1473C36.215 28.9251 36.0991 28.3696 36.2466 27.9092C36.6049 26.8299 36.6681 25.6077 36.4258 24.4648C36.1729 23.3219 35.646 22.3854 34.9295 21.8458C34.6239 21.6235 34.508 21.068 34.6555 20.6077C34.803 20.1473 35.1718 19.9727 35.4774 20.195C36.4785 20.9569 37.2266 22.2743 37.5743 23.8934C37.9221 25.5124 37.8378 27.2267 37.332 28.7505C37.2372 29.068 37.0159 29.2426 36.7946 29.2426Z" fill="#ACACAC"/>
<path d="M37.8491 31.3062C37.5646 31.3062 37.3117 31.0046 37.2485 30.576C37.1853 30.084 37.396 29.5919 37.7227 29.4808C38.5025 29.2427 39.1769 28.5443 39.6194 27.5443C40.062 26.5443 40.2095 25.3379 40.0515 24.1475C39.9882 23.6554 40.199 23.1633 40.5256 23.0522C40.8523 22.9411 41.179 23.2744 41.2527 23.7665C41.4846 25.4332 41.2633 27.1316 40.6521 28.5443C40.0304 29.957 39.082 30.9411 37.9861 31.2744C37.9229 31.3062 37.8808 31.3062 37.8491 31.3062Z" fill="#ACACAC"/>
<path d="M39.7356 35.0838C38.7873 35.0838 37.8284 34.6077 37.0381 33.6235C36.7746 33.3061 36.743 32.7188 36.9538 32.3219C37.1645 31.9251 37.5544 31.8775 37.8178 32.195C39.0929 33.7823 40.9791 33.5283 42.0328 31.6077C42.2435 31.2108 42.6334 31.1632 42.8969 31.4807C43.1603 31.7981 43.1919 32.3854 42.9812 32.7823C42.1487 34.3061 40.9369 35.0838 39.7356 35.0838Z" fill="#ACACAC"/>
<path d="M39.3978 40.4488H39.3872C38.2597 40.417 37.206 39.7186 36.4262 38.4964C35.6464 37.2742 35.2249 35.6551 35.2565 33.9726C35.2671 33.4646 35.5411 33.0678 35.8782 33.0678C36.2154 33.0837 36.4789 33.4964 36.4789 34.0043C36.4578 35.2107 36.7634 36.3535 37.3113 37.2265C37.8698 38.0996 38.6074 38.5916 39.4083 38.6075C39.7455 38.6234 40.0089 39.0361 40.0089 39.544C39.9984 40.0519 39.7244 40.4488 39.3978 40.4488Z" fill="#ACACAC"/>
<path d="M33.6455 41.3536C33.4664 41.3536 33.2767 41.2266 33.1608 40.9885C31.7488 38.2108 32.0965 34.2108 33.9511 32.0838C34.2145 31.7822 34.6044 31.8457 34.8046 32.2584C35.0048 32.6552 34.9627 33.2425 34.6887 33.5441C33.3715 35.052 33.1292 37.8933 34.1302 39.8774C34.3304 40.2742 34.2883 40.8616 34.0143 41.1631C33.9089 41.2901 33.7825 41.3536 33.6455 41.3536Z" fill="#ACACAC"/>
<path d="M35.0773 29.1948C34.8454 29.1948 34.6242 28.9885 34.5188 28.6551C33.8339 26.3853 32.053 25.3853 30.5462 26.417C30.2406 26.6234 29.8718 26.417 29.7348 25.9567C29.5978 25.4964 29.7348 24.9409 30.0404 24.7345C32.1584 23.2742 34.6663 24.6869 35.6358 27.8774C35.7727 28.3377 35.6358 28.8932 35.3302 29.0996C35.2459 29.1631 35.1616 29.1948 35.0773 29.1948Z" fill="#ACACAC"/>
<path d="M29.5986 35.1471C29.5459 35.1471 29.5038 35.1312 29.4511 35.1154C29.1244 34.9884 28.9242 34.4963 29.0085 34.0043C29.567 30.6074 31.8642 28.5281 34.1192 29.3852C34.4459 29.5122 34.6461 30.0043 34.5618 30.4963C34.4775 30.9884 34.1508 31.29 33.8241 31.163C32.2225 30.5598 30.5892 32.036 30.1887 34.4487C30.1255 34.8614 29.8726 35.1471 29.5986 35.1471Z" fill="#ACACAC"/>
<path d="M35.8996 34.909C35.594 34.909 35.2884 34.8297 34.9933 34.6551C34.34 34.29 33.8237 33.5598 33.5392 32.6074C33.2547 31.6551 33.223 30.5916 33.4654 29.6074C33.7078 28.6233 34.1925 27.8455 34.8247 27.417C35.457 26.9884 36.163 26.9408 36.8163 27.3059C37.4696 27.6709 37.986 28.4011 38.2705 29.3535C38.8606 31.3217 38.2916 33.6392 36.9849 34.544C36.6372 34.7979 36.2684 34.909 35.8996 34.909ZM34.6456 31.8614C34.7931 32.3694 35.0671 32.7503 35.4148 32.9408C35.7626 33.1313 36.1314 33.1154 36.4686 32.8773C37.1535 32.4011 37.4591 31.163 37.1535 30.1313C37.006 29.6233 36.732 29.2424 36.3843 29.0519C36.0365 28.8614 35.6677 28.8773 35.3305 29.1154C34.6351 29.5916 34.3295 30.8138 34.6456 31.8614Z" fill="#ACACAC"/>
<path d="M19.6925 41.9728C15.6777 41.9728 12.4111 37.0521 12.4111 31.0045C12.4111 24.9569 15.6777 20.0363 19.6925 20.0363C23.7073 20.0363 26.9739 24.9569 26.9739 31.0045C26.9739 37.0521 23.7178 41.9728 19.6925 41.9728ZM19.6925 21.8617C16.3521 21.8617 13.6335 25.9569 13.6335 30.9886C13.6335 36.0204 16.3521 40.1156 19.6925 40.1156C23.0329 40.1156 25.7515 36.0204 25.7515 30.9886C25.7515 25.9569 23.0434 21.8617 19.6925 21.8617Z" fill="#ACACAC"/>
<path d="M21.2518 30.0519C21.0727 30.0519 20.8936 29.9408 20.7777 29.7027C20.5669 29.3059 20.6091 28.7186 20.8725 28.4011C21.4942 27.6551 21.8946 26.5757 21.9789 25.3853C22.0738 24.1948 21.8419 23.0043 21.3467 22.0678C21.1359 21.671 21.1781 21.0837 21.4415 20.7662C21.7049 20.4487 22.0948 20.5122 22.3056 20.9091C23.7597 23.6551 23.4542 27.6551 21.6417 29.8456C21.5153 29.9884 21.3888 30.0519 21.2518 30.0519Z" fill="#ACACAC"/>
<path d="M22.4416 32.7189C22.136 32.7189 21.8199 32.6712 21.5038 32.5601C21.1771 32.449 20.9664 31.957 21.0401 31.4649C21.1139 30.9728 21.4405 30.6554 21.7672 30.7665C23.3794 31.322 24.9917 29.7982 25.3605 27.3697C25.4342 26.8776 25.7609 26.5601 26.0876 26.6712C26.4142 26.7824 26.625 27.2744 26.5512 27.7665C26.0981 30.7189 24.3594 32.7189 22.4416 32.7189Z" fill="#ACACAC"/>
<path d="M23.8119 37.6869C22.2418 37.6869 20.7349 36.3535 20.0079 34.0837C19.8603 33.6234 19.9868 33.0678 20.2924 32.8615C20.598 32.6393 20.9668 32.8297 21.1038 33.2901C21.8203 35.5282 23.6117 36.4805 25.108 35.4012C25.4136 35.1789 25.7824 35.3694 25.9194 35.8297C26.0564 36.2901 25.9404 36.8456 25.6349 37.052C25.0553 37.4805 24.4336 37.6869 23.8119 37.6869Z" fill="#ACACAC"/>
<path d="M20.5237 41.8615C20.4394 41.8615 20.3446 41.8297 20.2603 41.7663C18.1633 40.2424 17.2782 36.4329 18.2898 33.2901C18.4373 32.8297 18.8061 32.6393 19.1011 32.8615C19.4067 33.0837 19.5332 33.6393 19.3857 34.0837C18.6691 36.3218 19.3014 39.0361 20.7871 40.1155C21.0927 40.3377 21.2192 40.8932 21.0716 41.3377C20.9663 41.671 20.745 41.8615 20.5237 41.8615Z" fill="#ACACAC"/>
<path d="M15.0449 39.0839C14.771 39.0839 14.5181 38.7981 14.4548 38.3696C14.2019 36.7188 14.3916 35.0045 14.9922 33.5759C15.5929 32.1315 16.5307 31.1315 17.6266 30.7664C17.9533 30.6553 18.2799 30.9569 18.3537 31.4648C18.4275 31.9569 18.2272 32.4489 17.89 32.5601C17.1103 32.8299 16.4464 33.5442 16.0249 34.5601C15.6034 35.5759 15.4664 36.7981 15.6456 37.9728C15.7193 38.4648 15.5191 38.9569 15.1819 39.068C15.1398 39.0839 15.0871 39.0839 15.0449 39.0839Z" fill="#ACACAC"/>
<path d="M19.6915 28.9252C19.3543 28.9252 19.0804 28.5125 19.0804 28.0046C19.0804 25.5125 17.7316 23.4966 16.0877 23.4966C15.7505 23.4966 15.4766 23.0839 15.4766 22.576C15.4766 22.0681 15.7505 21.6554 16.0877 21.6554C18.4165 21.6554 20.3027 24.5125 20.3027 28.0046C20.3027 28.5125 20.0287 28.9252 19.6915 28.9252Z" fill="#ACACAC"/>
<path d="M13.0761 30.9091C12.9391 30.9091 12.8126 30.8456 12.6967 30.7028C12.4333 30.3853 12.3911 29.8139 12.6019 29.4012C13.3079 28.0678 14.3089 27.2425 15.4259 27.052C16.5429 26.8615 17.6493 27.3377 18.5239 28.4012C18.7874 28.7186 18.8295 29.2901 18.6188 29.7028C18.408 30.0996 18.0287 30.1631 17.7547 29.8456C16.4586 28.2901 14.5724 28.6075 13.5397 30.5599C13.4343 30.798 13.2552 30.9091 13.0761 30.9091Z" fill="#ACACAC"/>
<path d="M19.6926 34.9091C18.2595 34.9091 17.0898 33.1472 17.0898 30.9885C17.0898 28.8298 18.2595 27.0679 19.6926 27.0679C21.1257 27.0679 22.2953 28.8298 22.2953 30.9885C22.2953 33.1472 21.1257 34.9091 19.6926 34.9091ZM19.6926 28.925C18.9339 28.925 18.3122 29.8615 18.3122 31.0044C18.3122 32.1472 18.9339 33.0837 19.6926 33.0837C20.4513 33.0837 21.073 32.1472 21.073 31.0044C21.073 29.8615 20.4513 28.925 19.6926 28.925Z" fill="#ACACAC"/>
<path d="M5.12921 49.56C4.79201 49.56 4.51804 49.1473 4.51804 48.6394V13.4013H3.24301C2.90581 13.4013 2.63184 12.9886 2.63184 12.4806C2.63184 11.9727 2.90581 11.56 3.24301 11.56H5.12921C5.46641 11.56 5.74038 11.9727 5.74038 12.4806V48.6394C5.74038 49.1473 5.46641 49.56 5.12921 49.56Z" fill="#ACACAC"/>
<path d="M5.12951 22.9252H3.35922C3.02202 22.9252 2.74805 22.5125 2.74805 22.0045V16.8299C2.74805 16.322 3.02202 15.9093 3.35922 15.9093H5.12951C5.46671 15.9093 5.74068 16.322 5.74068 16.8299V22.0045C5.74068 22.5125 5.46671 22.9252 5.12951 22.9252ZM3.97039 21.0839H4.52887V17.7506H3.97039V21.0839Z" fill="#ACACAC"/>
<path d="M5.07755 41.8616H3.29672C2.95952 41.8616 2.68555 41.4489 2.68555 40.941V25.1791C2.68555 24.6712 2.95952 24.2585 3.29672 24.2585H5.07755C5.41474 24.2585 5.68872 24.6712 5.68872 25.1791V40.941C5.68872 41.4489 5.41474 41.8616 5.07755 41.8616ZM3.90789 40.0204H4.46637V26.0997H3.90789V40.0204Z" fill="#ACACAC"/>
<path d="M11.3768 49.5601H9.46957C9.13237 49.5601 8.8584 49.1474 8.8584 48.6394V46.195C8.8584 45.6871 9.13237 45.2744 9.46957 45.2744C9.80677 45.2744 10.0807 45.6871 10.0807 46.195V47.7188H10.7657V46.195C10.7657 45.6871 11.0396 45.2744 11.3768 45.2744C11.714 45.2744 11.988 45.6871 11.988 46.195V48.6394C11.988 49.1474 11.714 49.5601 11.3768 49.5601Z" fill="#ACACAC"/>
<path d="M32.9901 49.5601H31.0828C30.7457 49.5601 30.4717 49.1474 30.4717 48.6394V46.195C30.4717 45.6871 30.7457 45.2744 31.0828 45.2744C31.42 45.2744 31.694 45.6871 31.694 46.195V47.7188H32.379V46.195C32.379 45.6871 32.6529 45.2744 32.9901 45.2744C33.3273 45.2744 33.6013 45.6871 33.6013 46.195V48.6394C33.6013 49.1474 33.3273 49.5601 32.9901 49.5601Z" fill="#ACACAC"/>
<path d="M29.2815 49.5601H13.117C12.7798 49.5601 12.5059 49.1474 12.5059 48.6394V46.195C12.5059 45.6871 12.7798 45.2744 13.117 45.2744C13.4542 45.2744 13.7282 45.6871 13.7282 46.195V47.7188H28.6703V46.195C28.6703 45.6871 28.9443 45.2744 29.2815 45.2744C29.6187 45.2744 29.8926 45.6871 29.8926 46.195V48.6394C29.8926 49.1474 29.6187 49.5601 29.2815 49.5601Z" fill="#ACACAC"/>
<path d="M6.75152 20.0202H5.12875C4.79155 20.0202 4.51758 19.6075 4.51758 19.0996C4.51758 18.5916 4.79155 18.1789 5.12875 18.1789H6.75152C7.08871 18.1789 7.36269 18.5916 7.36269 19.0996C7.36269 19.6075 7.08871 20.0202 6.75152 20.0202Z" fill="#ACACAC"/>
<path d="M6.75016 46.9408H5.35922C5.02202 46.9408 4.74805 46.5281 4.74805 46.0202C4.74805 45.5123 5.02202 45.0996 5.35922 45.0996H6.75016C7.08736 45.0996 7.36133 45.5123 7.36133 46.0202C7.36133 46.5281 7.08736 46.9408 6.75016 46.9408Z" fill="#ACACAC"/>
<path d="M57.721 46.941H6.93051C6.59331 46.941 6.31934 46.5283 6.31934 46.0204V15.9728C6.31934 15.4648 6.59331 15.0521 6.93051 15.0521H57.721C60.4291 15.0521 62.6314 18.3696 62.6314 22.449V39.5601C62.6314 43.6236 60.4291 46.941 57.721 46.941ZM7.54168 45.0998H57.721C59.7547 45.0998 61.4091 42.6077 61.4091 39.5442V22.449C61.4091 19.3855 59.7547 16.8934 57.721 16.8934H7.54168V45.0998Z" fill="#ACACAC"/>
<path d="M13.7904 36.8616H13.2741C11.1244 36.8616 9.38574 34.2266 9.38574 31.0044C9.38574 27.7663 11.135 25.1473 13.2741 25.1473H13.8852C14.2224 25.1473 14.4964 25.56 14.4964 26.0679C14.4964 26.5758 14.2224 26.9885 13.8852 26.9885H13.2741C11.7988 26.9885 10.6081 28.7981 10.6081 31.0044C10.6081 33.2266 11.8094 35.0203 13.2741 35.0203H13.7904C14.1276 35.0203 14.4016 35.433 14.4016 35.9409C14.4016 36.4489 14.1276 36.8616 13.7904 36.8616Z" fill="#ACACAC"/>
<path d="M30.0924 26.9726H25.5086C25.1714 26.9726 24.8975 26.5599 24.8975 26.052C24.8975 25.5441 25.1714 25.1314 25.5086 25.1314H30.0924C30.4296 25.1314 30.7036 25.5441 30.7036 26.052C30.7036 26.5599 30.4296 26.9726 30.0924 26.9726Z" fill="#ACACAC"/>
<path d="M46.2868 26.9726H41.703C41.3658 26.9726 41.0918 26.5599 41.0918 26.052C41.0918 25.5441 41.3658 25.1314 41.703 25.1314H46.2868C46.624 25.1314 46.8979 25.5441 46.8979 26.052C46.8979 26.5599 46.624 26.9726 46.2868 26.9726Z" fill="#ACACAC"/>
<path d="M30.0924 36.8617H25.5086C25.1714 36.8617 24.8975 36.449 24.8975 35.941C24.8975 35.4331 25.1714 35.0204 25.5086 35.0204H30.0924C30.4296 35.0204 30.7036 35.4331 30.7036 35.941C30.7036 36.449 30.4296 36.8617 30.0924 36.8617Z" fill="#ACACAC"/>
<path d="M46.2868 36.8617H41.703C41.3658 36.8617 41.0918 36.449 41.0918 35.941C41.0918 35.4331 41.3658 35.0204 41.703 35.0204H46.2868C46.624 35.0204 46.8979 35.4331 46.8979 35.941C46.8979 36.449 46.624 36.8617 46.2868 36.8617Z" fill="#ACACAC"/>
</g>
</svg>
