<svg width="64" height="64" viewBox="0 0 64 64" fill="none" xmlns="http://www.w3.org/2000/svg">
<g clip-path="url(#clip0_514_101)">
<ellipse cx="32.5" cy="32" rx="31.5" ry="30" fill="url(#paint0_linear_514_101)"/>
<path d="M29.1235 1.10155C24.0537 1.76544 19.9554 3.08881 15.7502 5.74C11.4357 8.39116 7.65871 12.1436 5.17889 16.6692C1.61883 23.0728 0.325967 29.3643 1.29599 36.4318C2.58885 45.2653 7.98512 53.4356 15.7502 58.1818C20.2818 61.0542 25.3508 62.7073 30.4207 62.9286C33.2262 63.1499 35.812 62.9286 38.2961 62.486C47.6806 60.72 55.7722 54.8674 60.4095 46.3674C61.7024 44.0504 62.6724 41.0703 63.3211 38.1978C64.1858 34.2233 64.1858 30.4708 63.5373 26.6047C61.8119 17.7712 56.4164 9.8229 48.977 5.51869C45.0948 3.20166 40.9957 1.76544 36.5752 1.21441C34.9559 0.993109 30.4243 0.884669 29.1315 1.10597L29.1235 1.10155ZM34.1934 3.3101C38.1858 3.5314 42.0687 4.63346 45.4126 6.18261C46.9217 6.84641 48.3248 7.61873 48.541 7.94855C48.7572 8.05696 48.7573 8.05696 48.1086 8.27826C47.4601 8.38667 47.354 8.35017 47.354 8.46307C47.354 8.57148 46.8158 8.64234 47.354 8.64234C49.1896 8.64234 50.4495 9.35385 51.3472 10.5952C52.2113 11.5888 52.6401 12.3612 52.7496 13.5754C52.8564 14.6782 52.9659 34.2233 52.7496 35.3253C52.6437 36.4273 52.4275 37.0913 51.6731 37.8636C51.2406 38.3062 50.9185 38.5275 50.4861 38.636L49.9477 38.8572H35.0618C26.9702 38.9657 19.0985 38.8572 17.5857 38.8572C14.7795 38.8572 14.6736 38.8572 14.2412 38.636C13.4866 38.1934 12.8381 37.5339 12.4057 36.7579L12.0835 35.9856V26.1584C11.9776 20.7477 11.9776 15.6674 12.0835 14.6737C12.0835 13.1291 12.0835 12.9078 12.2998 12.4652C13.1645 10.5863 14.7929 9.07835 16.5181 8.86154C16.9505 8.86154 17.1653 8.36923 17.4876 8.36923C17.8097 8.47764 18.1361 8.36923 17.4876 8.36923C17.1654 8.26083 16.9372 8.16536 16.721 8.05696H16.1826L16.721 7.72725C17.4756 7.17623 20.0655 5.9613 21.4679 5.41017C24.164 4.30817 26.7541 3.7527 29.8824 3.42297C31.501 3.20166 32.3615 3.20166 34.197 3.31453L34.1934 3.3101ZM10.5708 13.467C10.4649 14.2393 10.4649 34.7743 10.5708 37.8681V40.185L11.0033 40.9573C11.7578 42.502 13.2668 43.7169 14.5633 43.8291C15.5341 44.0504 17.6917 44.0504 22.5453 44.0504H27.2923V46.259V48.359H32.3615H37.5373V46.259V44.0504H42.9292C45.9509 44.0504 48.7529 44.0504 49.5074 43.9419C50.4782 43.8335 50.6943 43.8335 51.343 43.4994C52.4196 42.9483 53.1785 42.1759 53.7168 41.0702C54.2552 39.9682 54.2552 39.634 54.3647 31.4644C54.4713 17.5544 54.4713 27.8196 54.3647 18.4351C54.3647 15.3413 54.2588 12.8031 54.3647 12.8031C54.3647 12.8031 55.3353 14.1264 56.2002 15.2329C58.68 18.7648 60.4052 22.7393 61.27 26.6047C61.5921 28.8133 61.7024 29.5856 61.5921 32.3451C61.5921 34.5537 61.5921 35.104 61.376 36.3189C60.8377 39.0785 60.0831 41.5084 59.0021 43.8254C57.8151 46.4766 56.6283 48.2417 54.6875 50.5588C54.039 51.3311 53.9329 51.7737 53.5006 52.1034C52.9623 52.6544 53.1785 52.546 51.237 54.0907C48.3248 56.0779 47.8924 56.2992 46.1671 57.1845C42.6071 59.0625 39.695 59.9433 35.812 60.4943C34.4089 60.6034 30.9591 60.7156 29.45 60.4943C24.4861 59.9433 19.6332 58.0652 15.5341 55.1972C13.0543 53.5397 11.1129 51.7737 9.49425 49.5652C6.25989 45.3701 4.42437 41.1743 3.55957 35.9856C3.23744 34.4409 3.23744 29.1386 3.55957 27.8152C4.3141 23.3988 5.61129 20.1967 7.76462 16.6647C8.7354 15.12 10.4606 12.7994 10.5708 12.7994C10.5708 12.7994 10.5708 13.1291 10.5708 13.4633V13.467ZM33.0064 41.7342C33.9772 42.0639 34.4088 43.3909 33.8705 44.493C33.5484 44.7143 32.7939 45.1568 32.3615 45.1568C31.7136 45.1568 31.0686 44.8271 30.8532 44.1632C30.637 43.9419 30.637 43.1696 30.8532 42.727C31.0686 41.8426 31.9298 41.5129 33.01 41.7342H33.0064Z" fill="black"/>
<path d="M16.8571 8.18411C17.7386 8.62893 17.8466 8.73787 17.1855 8.73787C16.8571 8.73787 16.3047 8.84682 15.8677 8.84682C14.1091 9.06923 12.5709 10.2902 11.6902 12.174C11.5822 12.6189 11.4698 12.8413 11.4698 14.3936C11.3618 15.3915 11.3618 20.4977 11.4698 25.9347V35.8109L11.7981 36.5871C12.2389 37.3632 12.8956 38.0305 13.6684 38.4753C14.1091 38.6977 14.2178 38.6977 17.0775 38.6977C18.6156 38.6977 26.6431 38.8066 34.8909 38.6977H50.0649L50.6137 38.4753C51.0544 38.3663 51.3828 38.1439 51.8234 37.6991C52.5926 36.9229 52.813 36.2557 52.9209 35.1482C53.1413 34.0405 53.0289 14.3973 52.9209 13.2898C52.813 12.0688 52.3722 11.2926 51.4907 10.2939C50.3933 9.18638 49.2914 8.74156 47.4205 8.74156C46.8717 8.74156 46.431 8.74156 46.431 8.63261C46.431 8.52367 47.5292 8.07885 48.1896 7.96539C50.2809 7.41162 54.1264 9.51773 54.5671 12.6269C54.5671 13.0718 54.5671 15.4003 54.5671 18.1737C54.6751 27.496 54.6751 18.1737 54.5671 31.2672C54.4592 39.4783 54.4592 39.8097 53.906 40.921C53.3572 42.0285 52.5882 42.8092 51.4864 43.3629C50.8252 43.6943 50.6048 43.6943 49.6161 43.8078C48.847 43.9167 45.9866 43.9167 42.9102 43.9167H37.4141V46.1363V48.2462H32.1392H26.9714V46.1363V43.9167H22.1328C17.1855 43.9167 14.9861 43.9167 13.9974 43.6943C12.6796 43.5853 11.137 42.3644 10.3679 40.8083L9.92716 40.0321V37.7035C9.8192 34.5944 9.8192 13.9569 9.92716 13.1807C10.2555 10.4074 13.885 7.07658 16.8528 8.1878L16.8571 8.18411ZM57.4312 16.5079C57.7595 16.8393 57.872 17.1751 58.0923 17.5065C57.872 17.1751 57.764 16.8393 57.4312 16.5079Z" fill="black"/>
<path d="M30.5229 42.8309C30.5229 42.0151 31.1841 41.3539 31.9999 41.3539C32.8156 41.3539 33.4768 42.0151 33.4768 42.8309C33.4768 43.6465 32.8156 44.3077 31.9999 44.3077C31.1841 44.3077 30.5229 43.6465 30.5229 42.8309Z" fill="url(#paint1_linear_514_101)"/>
<path d="M16.9504 10.9569C15.4568 11.4975 14.1538 12.586 13.407 14.0373C13.0336 14.9407 12.6616 17.1177 12.8507 17.4805C13.0336 18.0211 13.407 17.6583 13.7804 16.392C14.3367 14.9407 15.2739 13.4968 16.2036 12.9488C16.9504 12.2232 18.6268 11.4975 19.747 11.142C20.3033 11.142 20.6767 10.9641 20.6767 10.9641C20.6767 10.7864 17.8801 10.7864 16.9504 10.9641V10.9569Z" fill="#333333"/>
<path d="M26.3296 51.3122C25.3578 51.3122 24.9251 51.5495 24.3862 52.1402C23.9533 52.3775 23.6309 53.2055 23.6309 53.68V54.1538H29.5715C32.8085 54.1538 36.5892 54.1538 37.9938 54.0376H40.3693V53.684C40.2633 52.856 39.5044 52.028 38.7491 51.5534L38.3163 51.2H32.7024C29.6776 51.2 26.7625 51.2 26.3339 51.3162L26.3296 51.3122Z" fill="black"/>
<path d="M19.3081 13.467H24.7031V15.027H21.6481V16.379H24.2221V17.783H21.6481V19.291H24.6901V20.877H19.3081V13.467ZM29.9854 19.252H27.8274L27.4374 20.877H25.0454L27.4374 13.467H30.4924L32.7804 20.877H30.3754L29.9854 19.252ZM28.8934 15.066L28.1264 17.809H29.6734L28.9454 15.066H28.8934ZM35.5589 15.469C35.5589 15.651 35.6499 15.794 35.8319 15.898C36.0225 16.002 36.3172 16.1146 36.7159 16.236C37.1925 16.392 37.5825 16.5436 37.8859 16.691C38.1979 16.8383 38.4665 17.068 38.6919 17.38C38.9259 17.692 39.0429 18.0993 39.0429 18.602C39.0429 20.214 37.9942 21.02 35.8969 21.02C35.5502 21.02 35.1255 20.9896 34.6229 20.929C34.1289 20.8683 33.6782 20.7903 33.2709 20.695C33.2882 20.513 33.3229 20.2486 33.3749 19.902C33.4355 19.5466 33.4919 19.2823 33.5439 19.109C33.8472 19.1523 34.3022 19.2043 34.9089 19.265C35.5242 19.3256 35.9879 19.356 36.2999 19.356C36.4819 19.356 36.5902 19.343 36.6249 19.317C36.6769 19.2823 36.7159 19.226 36.7419 19.148C36.7765 19.0613 36.7939 18.9876 36.7939 18.927C36.7939 18.7536 36.7115 18.6236 36.5469 18.537C36.3822 18.4416 36.1005 18.329 35.7019 18.199C35.2252 18.0516 34.8309 17.9 34.5189 17.744C34.2069 17.588 33.9339 17.3453 33.6999 17.016C33.4659 16.6866 33.3489 16.2533 33.3489 15.716C33.3489 15.3346 33.4355 14.962 33.6089 14.598C33.7822 14.2253 33.9599 13.974 34.1419 13.844C34.2805 13.7486 34.5665 13.6576 34.9999 13.571C35.4332 13.4843 35.8405 13.441 36.2219 13.441C37.1925 13.441 37.9855 13.532 38.6009 13.714C38.5922 13.8873 38.5619 14.1256 38.5099 14.429C38.4665 14.7323 38.4189 15.0096 38.3669 15.261L38.0679 15.248C36.9412 15.17 36.2219 15.131 35.9099 15.131C35.7799 15.131 35.7062 15.1353 35.6889 15.144C35.6542 15.1613 35.6239 15.2003 35.5979 15.261C35.5719 15.3216 35.5589 15.391 35.5589 15.469ZM44.0346 18.511V20.877H41.6946V18.537L39.1986 13.467H41.5776L42.5656 15.872C42.6696 16.1146 42.7649 16.3703 42.8516 16.639H42.8776C42.9729 16.3443 43.0682 16.08 43.1636 15.846L44.1386 13.467H46.5046L44.0346 18.511Z" fill="black"/>
<path d="M24.1894 24.44H27.4654C28.7014 24.44 29.7094 24.74 30.4894 25.34C31.2694 25.928 31.6594 26.87 31.6594 28.166C31.6594 29.45 31.2694 30.398 30.4894 31.01C29.7094 31.61 28.7014 31.91 27.4654 31.91H25.0534V35.978C25.0534 36.434 24.8194 36.662 24.3514 36.662H24.1894C23.7214 36.662 23.4874 36.434 23.4874 35.978V25.142C23.4874 24.674 23.7214 24.44 24.1894 24.44ZM25.0534 25.772V30.56H27.4834C29.2474 30.56 30.1294 29.762 30.1294 28.166C30.1294 26.57 29.2474 25.772 27.4834 25.772H25.0534Z" fill="#0008C6"/>
<path d="M39.5959 24.296C40.8679 24.296 41.9119 24.548 42.7279 25.052C43.5559 25.556 43.9699 26.114 43.9699 26.726C43.9699 26.99 43.8679 27.206 43.6639 27.374C43.4719 27.53 43.2139 27.608 42.8899 27.608C42.5179 26.336 41.4199 25.7 39.5959 25.7C38.3959 25.7 37.3759 26.108 36.5359 26.924C35.7079 27.728 35.2939 28.928 35.2939 30.524C35.2939 32.108 35.7139 33.326 36.5539 34.178C37.3939 35.018 38.4079 35.438 39.5959 35.438C41.4439 35.438 42.6199 34.76 43.1239 33.404C43.4119 33.404 43.6339 33.488 43.7899 33.656C43.9579 33.812 44.0419 34.022 44.0419 34.286C44.0419 34.898 43.6219 35.474 42.7819 36.014C41.9419 36.542 40.8799 36.806 39.5959 36.806C37.9039 36.806 36.4879 36.26 35.3479 35.168C34.2079 34.076 33.6379 32.528 33.6379 30.524C33.6379 28.52 34.2079 26.984 35.3479 25.916C36.4879 24.836 37.9039 24.296 39.5959 24.296Z" fill="#CF0000"/>
</g>
<defs>
<linearGradient id="paint0_linear_514_101" x1="1" y1="31.5238" x2="64" y2="31.5238" gradientUnits="userSpaceOnUse">
<stop stop-color="#C20000"/>
<stop offset="0.316666" stop-color="#D74D4D"/>
<stop offset="0.426041" stop-color="#CBCCE5"/>
<stop offset="0.498958" stop-color="white"/>
<stop offset="0.566666" stop-color="#CBCCE5"/>
<stop offset="0.670833" stop-color="#6F73D1"/>
<stop offset="1" stop-color="#0008BD"/>
</linearGradient>
<linearGradient id="paint1_linear_514_101" x1="30.5" y1="43" x2="33.5" y2="43" gradientUnits="userSpaceOnUse">
<stop stop-color="#E7BFBF"/>
<stop offset="1" stop-color="#DEDFEA"/>
</linearGradient>
<clipPath id="clip0_514_101">
<rect width="64" height="64" fill="white"/>
</clipPath>
</defs>
</svg>
