<svg width="64" height="64" viewBox="0 0 64 64" fill="none" xmlns="http://www.w3.org/2000/svg">
<path d="M0 10C0 4.47715 4.47715 0 10 0H54C59.5228 0 64 4.47715 64 10V54C64 59.5228 59.5228 64 54 64H10C4.47715 64 0 59.5228 0 54V10Z" fill="black"/>
<path d="M4.36133 9.39999H17.4473V10.462H10.6973V15.124H14.0093V16.204H10.6973V20.92H17.4473V22H4.36133V9.39999ZM22.9255 9.39999H28.1815L33.7615 22H26.9575L25.0675 17.824H21.1075L19.4875 22H18.1735L22.9255 9.39999ZM24.5635 16.726L22.9255 13.072L21.5035 16.726H24.5635ZM43.2032 13.918C44.6312 14.302 45.6992 14.812 46.4072 15.448C47.1152 16.072 47.4692 16.888 47.4692 17.896C47.4692 18.7 47.2172 19.42 46.7132 20.056C46.2092 20.692 45.4652 21.19 44.4812 21.55C43.5092 21.91 42.3272 22.09 40.9352 22.09C39.2912 22.09 37.8392 21.88 36.5792 21.46C35.3312 21.028 34.3532 20.506 33.6452 19.894L34.2392 19.084C34.8632 19.576 35.6492 19.996 36.5972 20.344C37.5452 20.692 38.5652 20.866 39.6572 20.866C40.3652 20.866 40.8992 20.764 41.2592 20.56C41.6312 20.356 41.8172 20.068 41.8172 19.696C41.8172 19.048 41.1752 18.544 39.8912 18.184L37.5512 17.5C36.2792 17.116 35.2952 16.582 34.5992 15.898C33.9152 15.214 33.5732 14.404 33.5732 13.468C33.5732 12.688 33.8192 11.98 34.3112 11.344C34.8032 10.708 35.5172 10.21 36.4532 9.84999C37.4012 9.47799 38.5352 9.29199 39.8552 9.29199C41.1152 9.29199 42.2732 9.43599 43.3292 9.72399C44.3972 10.012 45.2672 10.36 45.9392 10.768L45.3452 11.596C44.7812 11.272 44.1032 10.996 43.3112 10.768C42.5312 10.54 41.7092 10.426 40.8452 10.426C40.0892 10.426 39.5072 10.546 39.0992 10.786C38.7032 11.014 38.5052 11.332 38.5052 11.74C38.5052 12.052 38.6552 12.328 38.9552 12.568C39.2552 12.796 39.8252 13.024 40.6652 13.252L43.2032 13.918ZM50.1003 16.222L46.1943 9.39999H53.2503L55.8423 14.548L58.3623 9.39999H59.7483L56.4003 16.222V22H50.1003V16.222Z" fill="white"/>
<path d="M11.873 58V27.2383H13.6309V58H11.873ZM15.6084 44.4648V42.8389H22.2002C25.3643 42.8389 27.3418 41.6523 28.1328 39.2793C28.4551 38.2832 28.6162 37.082 28.6162 35.6758C28.6162 32.248 27.5029 30.124 25.2764 29.3037C24.3975 28.9814 23.3574 28.8203 22.1562 28.8203H15.6084V27.2383H23.123C26.873 27.4727 29.1729 29.1719 30.0225 32.3359C30.2861 33.332 30.418 34.4893 30.418 35.8076C30.418 40.8174 28.4844 43.6445 24.6172 44.2891C24.1484 44.377 23.6504 44.4355 23.123 44.4648H15.6084Z" fill="#0500FF"/>
<path d="M33.0547 50.0459V35.2363C33.0547 33.5664 33.6699 31.9258 34.9004 30.3145C36.6289 28.1172 38.958 27.0186 41.8877 27.0186V28.6885C39.1631 28.6885 37.1123 29.8457 35.7354 32.1602C35.1201 33.2441 34.8125 34.2695 34.8125 35.2363V50.0459C34.8125 51.4814 35.3984 52.8584 36.5703 54.1768C37.9473 55.7295 39.7197 56.5205 41.8877 56.5498V58.2197C38.46 58.2197 35.9111 56.8135 34.2412 54.001C33.4502 52.624 33.0547 51.3057 33.0547 50.0459ZM43.8652 58.2197V56.5498C43.8652 56.5498 44.4072 56.4619 45.4912 56.2861C48.0107 55.583 49.6221 54.1182 50.3252 51.8916C50.3838 51.6572 50.4863 51.1885 50.6328 50.4854C50.6914 49.958 50.7207 49.6797 50.7207 49.6504L52.2148 50.002C52.2148 52.5508 51.1748 54.6602 49.0947 56.3301C47.5127 57.5898 45.7695 58.2197 43.8652 58.2197ZM43.8652 28.6885V27.0186C46.1211 26.9893 48.1279 27.9268 49.8857 29.8311C51.4385 31.501 52.2148 33.332 52.2148 35.3242L50.6328 35.7197C50.6328 35.3975 50.6182 35.1484 50.5889 34.9727C50.5303 34.5918 50.4424 34.2109 50.3252 33.8301C50.0029 32.8926 49.5488 32.0723 48.9629 31.3691C48.4062 30.666 47.835 30.1533 47.249 29.8311C46.6924 29.4795 46.1504 29.2158 45.623 29.04C45.0957 28.8643 44.6709 28.7617 44.3486 28.7324L43.8652 28.6885Z" fill="#D51B1B"/>
</svg>
