<svg width="64" height="64" viewBox="0 0 64 64" fill="none" xmlns="http://www.w3.org/2000/svg">
<path d="M32 18H20V30H32V18Z" fill="#ACACAC"/>
<path d="M54 4H10C8.89453 4 8 4.89551 8 6V40H26C26.5527 40 27 40.4473 27 41C27 41.5527 26.5527 42 26 42H8V58C8 59.1045 8.89453 60 10 60H54C55.1055 60 56 59.1045 56 58V6C56 4.89551 55.1055 4 54 4ZM46 14C46 13.4473 46.4473 13 47 13C47.5527 13 48 13.4473 48 14V38C48 38.5527 47.5527 39 47 39C46.4473 39 46 38.5527 46 38V14ZM32 50H18C17.4473 50 17 49.5527 17 49C17 48.4473 17.4473 48 18 48H32C32.5527 48 33 48.4473 33 49C33 49.5527 32.5527 50 32 50ZM32 46H18C17.4473 46 17 45.5527 17 45C17 44.4473 17.4473 44 18 44H32C32.5527 44 33 44.4473 33 45C33 45.5527 32.5527 46 32 46ZM36 26C36.5527 26 37 26.4473 37 27C37 27.5527 36.5527 28 36 28H34V31C34 31.5527 33.5527 32 33 32H30V34C30 34.5527 29.5527 35 29 35C28.4473 35 28 34.5527 28 34V32H24V34C24 34.5527 23.5527 35 23 35C22.4473 35 22 34.5527 22 34V32H19C18.4473 32 18 31.5527 18 31V28H16C15.4473 28 15 27.5527 15 27C15 26.4473 15.4473 26 16 26H18V22H16C15.4473 22 15 21.5527 15 21C15 20.4473 15.4473 20 16 20H18V17C18 16.4473 18.4473 16 19 16H22V14C22 13.4473 22.4473 13 23 13C23.5527 13 24 13.4473 24 14V16H28V14C28 13.4473 28.4473 13 29 13C29.5527 13 30 13.4473 30 14V16H33C33.5527 16 34 16.4473 34 17V20H36C36.5527 20 37 20.4473 37 21C37 21.5527 36.5527 22 36 22H34V26H36ZM43 50H41C40.4473 50 40 49.5527 40 49C40 48.4473 40.4473 48 41 48H43C43.5527 48 44 48.4473 44 49C44 49.5527 43.5527 50 43 50ZM43 46H41C40.4473 46 40 45.5527 40 45C40 44.4473 40.4473 44 41 44H43C43.5527 44 44 44.4473 44 45C44 45.5527 43.5527 46 43 46ZM44 38C44 38.5527 43.5527 39 43 39C42.4473 39 42 38.5527 42 38V14C42 13.4473 42.4473 13 43 13C43.5527 13 44 13.4473 44 14V38ZM49 50H47C46.4473 50 46 49.5527 46 49C46 48.4473 46.4473 48 47 48H49C49.5527 48 50 48.4473 50 49C50 49.5527 49.5527 50 49 50ZM49 46H47C46.4473 46 46 45.5527 46 45C46 44.4473 46.4473 44 47 44H49C49.5527 44 50 44.4473 50 45C50 45.5527 49.5527 46 49 46Z" fill="#ACACAC"/>
</svg>
