<svg width="64" height="64" viewBox="0 0 64 64" fill="none" xmlns="http://www.w3.org/2000/svg">
<path d="M56 5H8V59H56V5Z" stroke="#ACACAC" stroke-width="2"/>
<path d="M30.8683 41.2943C31.2423 41.3162 31.6195 41.3272 31.9994 41.3272C41.7196 41.3272 49.5994 34.0743 49.5994 25.1272C49.5994 16.1802 41.7196 8.92725 31.9994 8.92725C22.2792 8.92725 14.3994 16.1802 14.3994 25.1272C14.3994 31.3513 18.2128 36.7556 23.8063 39.4686" stroke="#ACACAC" stroke-width="2"/>
<path d="M31.9995 30.5272C35.2396 30.5272 37.8661 28.1096 37.8661 25.1272C37.8661 22.1449 35.2396 19.7272 31.9995 19.7272C28.7594 19.7272 26.1328 22.1449 26.1328 25.1272C26.1328 28.1096 28.7594 30.5272 31.9995 30.5272Z" stroke="#ACACAC" stroke-width="2"/>
<path d="M51.7327 9.90913C52.3218 9.90913 52.7993 9.46956 52.7993 8.92731C52.7993 8.38507 52.3218 7.9455 51.7327 7.9455C51.1436 7.9455 50.666 8.38507 50.666 8.92731C50.666 9.46956 51.1436 9.90913 51.7327 9.90913Z" stroke="#ACACAC" stroke-width="2"/>
<path d="M51.7327 56.0545C52.3218 56.0545 52.7993 55.6149 52.7993 55.0727C52.7993 54.5305 52.3218 54.0909 51.7327 54.0909C51.1436 54.0909 50.666 54.5305 50.666 55.0727C50.666 55.6149 51.1436 56.0545 51.7327 56.0545Z" stroke="#ACACAC" stroke-width="2"/>
<path d="M12.2669 9.90913C12.856 9.90913 13.3335 9.46956 13.3335 8.92731C13.3335 8.38507 12.856 7.9455 12.2669 7.9455C11.6778 7.9455 11.2002 8.38507 11.2002 8.92731C11.2002 9.46956 11.6778 9.90913 12.2669 9.90913Z" stroke="#ACACAC" stroke-width="2"/>
<path d="M12.2669 56.0545C12.856 56.0545 13.3335 55.6149 13.3335 55.0727C13.3335 54.5305 12.856 54.0909 12.2669 54.0909C11.6778 54.0909 11.2002 54.5305 11.2002 55.0727C11.2002 55.6149 11.6778 56.0545 12.2669 56.0545Z" stroke="#ACACAC" stroke-width="2"/>
<path d="M17.6008 48.2C18.1899 48.2 18.6675 47.7605 18.6675 47.2182C18.6675 46.676 18.1899 46.2364 17.6008 46.2364C17.0117 46.2364 16.5342 46.676 16.5342 47.2182C16.5342 47.7605 17.0117 48.2 17.6008 48.2Z" stroke="#ACACAC" stroke-width="2"/>
<path fill-rule="evenodd" clip-rule="evenodd" d="M21.604 49.1894L39.713 32.4684L16.84 43.1539C16.4177 43.2782 16.0095 43.4657 15.6313 43.7186C13.7249 44.9935 13.3023 47.4495 14.6874 49.2042C16.0724 50.959 18.7407 51.3479 20.6471 50.0731C21.0253 49.8201 21.3451 49.5207 21.604 49.1894Z" stroke="#ACACAC" stroke-width="2" stroke-linecap="round" stroke-linejoin="round"/>
</svg>
