<svg width="200" height="200" viewBox="0 0 200 200" fill="none" xmlns="http://www.w3.org/2000/svg">
<g filter="url(#filter0_d_216_909)">
<path d="M112.499 33.3333H16.666C13.3508 33.3333 10.1714 34.6502 7.82718 36.9944C5.48297 39.3386 4.16602 42.5183 4.16602 45.8333V104.167C4.16602 107.482 5.48297 110.661 7.82718 113.005C10.1714 115.349 13.3508 116.667 16.666 116.667H62.4994V125H24.9994C23.8943 125 22.8345 125.439 22.0531 126.22C21.2717 127.002 20.8327 128.062 20.8327 129.167C20.8327 130.272 21.2717 131.332 22.0531 132.113C22.8345 132.894 23.8943 133.333 24.9994 133.333H104.166C105.271 133.333 106.331 132.894 107.112 132.113C107.894 131.332 108.333 130.272 108.333 129.167C108.333 128.062 107.894 127.002 107.112 126.22C106.331 125.439 105.271 125 104.166 125H70.8327V116.667H112.499C115.814 116.667 118.994 115.349 121.338 113.005C123.682 110.661 124.999 107.482 124.999 104.167V45.8333C124.999 42.5183 123.682 39.3386 121.338 36.9944C118.994 34.6502 115.814 33.3333 112.499 33.3333ZM116.666 104.167C116.666 105.272 116.227 106.332 115.446 107.113C114.664 107.894 113.604 108.333 112.499 108.333H16.666C15.5609 108.333 14.5011 107.894 13.7197 107.113C12.9383 106.332 12.4993 105.272 12.4993 104.167V45.8333C12.4993 44.7283 12.9383 43.6683 13.7197 42.887C14.5011 42.1058 15.5609 41.6666 16.666 41.6666H112.499C113.604 41.6666 114.664 42.1058 115.446 42.887C116.227 43.6683 116.666 44.7283 116.666 45.8333V104.167Z" fill="black"/>
<path d="M183.334 33.3333H145.834C142.519 33.3333 139.339 34.6502 136.995 36.9944C134.651 39.3386 133.334 42.5183 133.334 45.8333V133.333C133.334 134.438 133.773 135.498 134.554 136.279C135.336 137.061 136.396 137.5 137.501 137.5C138.606 137.5 139.666 137.061 140.447 136.279C141.228 135.498 141.667 134.438 141.667 133.333V45.8333C141.667 44.7283 142.106 43.6683 142.888 42.887C143.669 42.1058 144.729 41.6666 145.834 41.6666H183.334C184.439 41.6666 185.499 42.1058 186.28 42.887C187.061 43.6683 187.501 44.7283 187.501 45.8333V154.167C187.501 155.272 187.061 156.332 186.28 157.113C185.499 157.894 184.439 158.333 183.334 158.333H179.167C178.062 158.333 177.002 158.772 176.221 159.554C175.44 160.335 175.001 161.395 175.001 162.5C175.001 163.605 175.44 164.665 176.221 165.446C177.002 166.227 178.062 166.667 179.167 166.667H183.334C186.649 166.667 189.829 165.349 192.173 163.005C194.517 160.661 195.834 157.482 195.834 154.167V45.8333C195.834 42.5183 194.517 39.3386 192.173 36.9944C189.829 34.6502 186.649 33.3333 183.334 33.3333Z" fill="black"/>
<path d="M111.666 143.333C111.278 142.816 110.775 142.396 110.196 142.107C109.618 141.817 108.979 141.667 108.333 141.667H20.8327C20.1859 141.667 19.5479 141.817 18.9693 142.107C18.3907 142.396 17.8875 142.816 17.4994 143.333L4.99935 160C4.53506 160.619 4.25235 161.355 4.18285 162.126C4.11336 162.897 4.25985 163.671 4.60589 164.363C4.95198 165.056 5.48389 165.638 6.14214 166.045C6.80039 166.451 7.55889 166.667 8.33269 166.667H120.833C121.606 166.667 122.365 166.451 123.023 166.045C123.681 165.638 124.214 165.056 124.559 164.363C124.906 163.671 125.052 162.897 124.983 162.126C124.913 161.355 124.63 160.619 124.166 160L111.666 143.333ZM16.666 158.333L22.916 150H106.249L112.499 158.333H16.666Z" fill="black"/>
<path d="M149.276 141.667C144.852 141.431 140.48 142.717 136.888 145.311C133.297 147.905 130.701 151.651 129.534 155.925C129.146 157.163 129.057 158.475 129.274 159.754C129.491 161.034 130.009 162.243 130.784 163.283C131.563 164.331 132.576 165.182 133.742 165.769C134.908 166.357 136.195 166.664 137.501 166.667H161.018C162.319 166.669 163.602 166.366 164.765 165.783C165.928 165.2 166.938 164.352 167.715 163.309C168.492 162.265 169.014 161.054 169.238 159.772C169.463 158.491 169.385 157.175 169.009 155.929C167.843 151.656 165.248 147.911 161.659 145.317C158.069 142.722 153.699 141.434 149.276 141.667ZM137.501 158.333V158.354C138.128 155.777 139.664 153.512 141.828 151.977C143.991 150.442 146.636 149.74 149.276 150C151.911 149.738 154.553 150.437 156.713 151.968C158.874 153.499 160.408 155.76 161.034 158.333H137.501Z" fill="black"/>
<path d="M150.001 62.5001H179.167C180.272 62.5001 181.332 62.0609 182.114 61.2797C182.895 60.4984 183.334 59.4384 183.334 58.3334C183.334 57.2284 182.895 56.1684 182.114 55.3872C181.332 54.6059 180.272 54.1667 179.167 54.1667H150.001C148.896 54.1667 147.836 54.6059 147.054 55.3872C146.273 56.1684 145.834 57.2284 145.834 58.3334C145.834 59.4384 146.273 60.4984 147.054 61.2797C147.836 62.0609 148.896 62.5001 150.001 62.5001Z" fill="black"/>
<path d="M164.583 125C166.884 125 168.749 123.135 168.749 120.833C168.749 118.532 166.884 116.667 164.583 116.667C162.281 116.667 160.416 118.532 160.416 120.833C160.416 123.135 162.281 125 164.583 125Z" fill="black"/>
</g>
<defs>
<filter id="filter0_d_216_909" x="-4" y="0" width="208" height="212" filterUnits="userSpaceOnUse" color-interpolation-filters="sRGB">
<feFlood flood-opacity="0" result="BackgroundImageFix"/>
<feColorMatrix in="SourceAlpha" type="matrix" values="0 0 0 0 0 0 0 0 0 0 0 0 0 0 0 0 0 0 127 0" result="hardAlpha"/>
<feOffset dy="8"/>
<feGaussianBlur stdDeviation="2"/>
<feComposite in2="hardAlpha" operator="out"/>
<feColorMatrix type="matrix" values="0 0 0 0 0 0 0 0 0 0 0 0 0 0 0 0 0 0 0.25 0"/>
<feBlend mode="normal" in2="BackgroundImageFix" result="effect1_dropShadow_216_909"/>
<feBlend mode="normal" in="SourceGraphic" in2="effect1_dropShadow_216_909" result="shape"/>
</filter>
</defs>
</svg>
