<svg width="64" height="64" viewBox="0 0 64 64" fill="none" xmlns="http://www.w3.org/2000/svg">
<path d="M13.333 33.3333C11.1277 33.3333 9.33301 35.128 9.33301 37.3333C9.33301 39.5386 11.1277 41.3333 13.333 41.3333C15.5383 41.3333 17.333 39.5386 17.333 37.3333C17.333 35.128 15.5383 33.3333 13.333 33.3333ZM13.333 38.6666C12.5983 38.6666 11.9997 38.068 11.9997 37.3333C11.9997 36.5986 12.5983 36 13.333 36C14.0677 36 14.6663 36.5986 14.6663 37.3333C14.6663 38.068 14.0677 38.6666 13.333 38.6666ZM7.99967 26.6666H18.6663C19.4023 26.6666 19.9997 26.0693 19.9997 25.3333V20C19.9997 19.264 19.4023 18.6666 18.6663 18.6666H7.99967C7.26367 18.6666 6.66634 19.264 6.66634 20V25.3333C6.66634 26.0693 7.26367 26.6666 7.99967 26.6666ZM9.33301 21.3333H17.333V24H9.33301V21.3333ZM31.9997 26.6666H55.9997C56.7357 26.6666 57.333 26.0693 57.333 25.3333V20C57.333 19.264 56.7357 18.6666 55.9997 18.6666H31.9997C31.2637 18.6666 30.6663 19.264 30.6663 20V25.3333C30.6663 26.0693 31.2637 26.6666 31.9997 26.6666ZM49.333 21.3333H54.6663V24H49.333V21.3333ZM41.333 21.3333H46.6663V24H41.333V21.3333ZM33.333 21.3333H38.6663V24H33.333V21.3333ZM61.333 13.3333H2.66634C1.93034 13.3333 1.33301 13.9306 1.33301 14.6666V49.3333C1.33301 50.0693 1.93034 50.6666 2.66634 50.6666H61.333C62.069 50.6666 62.6663 50.0693 62.6663 49.3333V14.6666C62.6663 13.9306 62.069 13.3333 61.333 13.3333ZM59.9997 48H3.99967V16H59.9997V48ZM31.9997 45.3333H55.9997C56.7357 45.3333 57.333 44.736 57.333 44V38.6666C57.333 37.9306 56.7357 37.3333 55.9997 37.3333H31.9997C31.2637 37.3333 30.6663 37.9306 30.6663 38.6666V44C30.6663 44.736 31.2637 45.3333 31.9997 45.3333ZM49.333 40H54.6663V42.6666H49.333V40ZM41.333 40H46.6663V42.6666H41.333V40ZM33.333 40H38.6663V42.6666H33.333V40ZM31.9997 36H55.9997C56.7357 36 57.333 35.4026 57.333 34.6666V29.3333C57.333 28.5973 56.7357 28 55.9997 28H31.9997C31.2637 28 30.6663 28.5973 30.6663 29.3333V34.6666C30.6663 35.4026 31.2637 36 31.9997 36ZM49.333 30.6666H54.6663V33.3333H49.333V30.6666ZM41.333 30.6666H46.6663V33.3333H41.333V30.6666ZM33.333 30.6666H38.6663V33.3333H33.333V30.6666Z" fill="#ACACAC"/>
</svg>
