<svg width="32" height="32" viewBox="0 0 32 32" fill="none" xmlns="http://www.w3.org/2000/svg">
<path fill-rule="evenodd" clip-rule="evenodd" d="M19.799 8.48528C22.9232 11.6095 22.9232 16.6748 19.799 19.799C16.6748 22.9232 11.6095 22.9232 8.48528 19.799C5.36109 16.6748 5.36109 11.6095 8.48528 8.48528C11.6095 5.36109 16.6748 5.36109 19.799 8.48528ZM21.2132 7.07107C25.1184 10.9763 25.1184 17.308 21.2132 21.2132C17.308 25.1184 10.9763 25.1184 7.07107 21.2132C3.16582 17.308 3.16582 10.9763 7.07107 7.07107C10.9763 3.16583 17.308 3.16582 21.2132 7.07107ZM21.2132 21.2132L21.9203 20.5061L29.6985 28.2843L28.2843 29.6985L20.5061 21.9203L21.2132 21.2132Z" fill="black"/>
</svg>
