<svg width="64" height="64" viewBox="0 0 64 64" fill="none" xmlns="http://www.w3.org/2000/svg">
<path d="M43.2898 0H20.7098C19.1098 0 17.7998 1.3 17.7998 2.91V61.09C17.7998 62.69 19.0998 64 20.7098 64H43.2998C44.8998 64 46.2098 62.7 46.2098 61.09V2.91C46.2069 2.13738 45.898 1.39739 45.3507 0.852001C44.8035 0.306613 44.0624 0.000259028 43.2898 0ZM44.2598 61.09C44.2598 61.62 43.8198 62.06 43.2898 62.06H20.7098C20.1798 62.06 19.7398 61.62 19.7398 61.09V2.91C19.7398 2.38 20.1798 1.94 20.7098 1.94H43.2998C43.8298 1.94 44.2698 2.38 44.2698 2.91V61.09H44.2598Z" fill="#E5E5E5"/>
<path d="M39.6099 7.06006H24.3899C23.8499 7.06006 23.4199 7.49006 23.4199 8.03006C23.4199 8.57006 23.8499 9.00006 24.3899 9.00006H39.6099C39.8672 9.00006 40.1139 8.89786 40.2958 8.71595C40.4777 8.53404 40.5799 8.28732 40.5799 8.03006C40.5799 7.7728 40.4777 7.52608 40.2958 7.34416C40.1139 7.16225 39.8672 7.06006 39.6099 7.06006ZM39.6099 11.8001H24.3899C23.8499 11.8001 23.4199 12.2301 23.4199 12.7701C23.4199 13.3101 23.8499 13.7401 24.3899 13.7401H39.6099C40.1499 13.7401 40.5799 13.3101 40.5799 12.7701C40.5799 12.2401 40.1399 11.8001 39.6099 11.8001ZM39.6099 16.5501H24.3899C23.8499 16.5501 23.4199 16.9801 23.4199 17.5201C23.4199 18.0601 23.8499 18.4901 24.3899 18.4901H39.6099C39.8672 18.4901 40.1139 18.3879 40.2958 18.206C40.4777 18.024 40.5799 17.7773 40.5799 17.5201C40.5799 17.2628 40.4777 17.0161 40.2958 16.8342C40.1139 16.6523 39.8672 16.5501 39.6099 16.5501ZM32.0399 34.4001C29.6499 34.4001 27.6999 36.3401 27.6999 38.7401C27.6999 41.1301 29.6499 43.0801 32.0399 43.0801C34.4299 43.0801 36.3799 41.1401 36.3799 38.7401C36.3799 36.3401 34.4399 34.4001 32.0399 34.4001ZM32.0399 41.1301C31.4033 41.1299 30.7927 40.8769 30.3427 40.4266C29.8926 39.9763 29.6398 39.3657 29.6399 38.7291C29.6401 38.0924 29.8931 37.4819 30.3434 37.0318C30.7936 36.5817 31.4043 36.3289 32.0409 36.3291C32.3562 36.3291 32.6683 36.3913 32.9595 36.512C33.2507 36.6327 33.5153 36.8095 33.7382 37.0325C33.961 37.2555 34.1378 37.5201 34.2584 37.8114C34.379 38.1027 34.441 38.4148 34.4409 38.7301C34.4409 39.0453 34.3787 39.3574 34.258 39.6487C34.1373 39.9399 33.9604 40.2045 33.7375 40.4273C33.5145 40.6502 33.2499 40.8269 32.9586 40.9475C32.6673 41.0681 32.3552 41.1301 32.0399 41.1301Z" fill="#E5E5E5"/>
</svg>
