<svg width="64" height="64" viewBox="0 0 64 64" fill="none" xmlns="http://www.w3.org/2000/svg">
<path d="M43 0H21C14.7667 0 10 3.78182 10 8.72727V55.2727C10 60.2182 14.7667 64 21 64H43C49.2333 64 54 60.2182 54 55.2727V8.72727C54 3.78182 49.2333 0 43 0ZM46.6667 55.2727C46.6667 57.0182 45.2 58.1818 43 58.1818H21C18.8 58.1818 17.3333 57.0182 17.3333 55.2727V8.72727C17.3333 6.98182 18.8 5.81818 21 5.81818V6.69091C21 11.0545 25.4 14.5455 30.9 14.5455H33.1C38.6 14.5455 43 11.0545 43 6.69091V5.81818C45.2 5.81818 46.6667 6.98182 46.6667 8.72727V55.2727Z" fill="#E5E5E5"/>
<path d="M39.3333 47H24.6667C22.4667 47 21 48 21 49.5C21 51 22.4667 52 24.6667 52H39.3333C41.5333 52 43 51 43 49.5C43 48 41.5333 47 39.3333 47Z" fill="#E5E5E5"/>
</svg>
