<?xml version="1.0" standalone="no"?>
<!DOCTYPE svg PUBLIC "-//W3C//DTD SVG 20010904//EN"
 "http://www.w3.org/TR/2001/REC-SVG-20010904/DTD/svg10.dtd">
<svg version="1.0" xmlns="http://www.w3.org/2000/svg"
 width="64.000000pt" height="64.000000pt" viewBox="0 0 64.000000 64.000000"
 preserveAspectRatio="xMidYMid meet">

<g transform="translate(0.000000,64.000000) scale(0.100000,-0.100000)"
fill="#000000" stroke="none">
<path d="M146 618 c-24 -33 -24 -563 0 -596 15 -21 21 -22 174 -22 153 0 159
1 174 22 24 33 24 563 0 596 -15 21 -21 22 -174 22 -153 0 -159 -1 -174 -22z
m334 -17 c5 -11 10 -84 10 -165 l0 -146 -50 -25 -50 -25 0 -110 0 -110 -70 0
-70 0 0 110 0 110 -50 25 -50 25 0 146 c0 81 5 154 10 165 10 17 23 19 160 19
137 0 150 -2 160 -19z m-279 -358 l29 -17 0 -103 0 -103 -30 0 c-42 0 -50 23
-50 139 0 109 2 113 51 84z m289 -84 c0 -116 -8 -139 -50 -139 l-30 0 0 103
c0 101 0 103 28 119 49 31 52 27 52 -83z"/>
<path d="M235 540 c-4 -6 27 -10 85 -10 58 0 89 4 85 10 -3 6 -42 10 -85 10
-43 0 -82 -4 -85 -10z"/>
<path d="M235 490 c3 -5 42 -10 85 -10 43 0 82 5 85 10 4 6 -27 10 -85 10 -58
0 -89 -4 -85 -10z"/>
<path d="M310 310 c0 -16 5 -30 10 -30 6 0 10 14 10 30 0 17 -4 30 -10 30 -5
0 -10 -13 -10 -30z"/>
<path d="M280 304 c-10 -11 -11 -23 -4 -42 8 -22 16 -27 44 -27 29 0 36 5 44
28 8 21 6 31 -6 43 -15 15 -16 14 -15 -17 2 -30 -1 -34 -23 -34 -22 0 -25 4
-24 33 2 37 1 38 -16 16z"/>
</g>
</svg>
