<?xml version="1.0" standalone="no"?>
<!DOCTYPE svg PUBLIC "-//W3C//DTD SVG 20010904//EN"
 "http://www.w3.org/TR/2001/REC-SVG-20010904/DTD/svg10.dtd">
<svg version="1.0" xmlns="http://www.w3.org/2000/svg"
 width="64.000000pt" height="64.000000pt" viewBox="0 0 64.000000 64.000000"
 preserveAspectRatio="xMidYMid meet">

<g transform="translate(0.000000,64.000000) scale(0.100000,-0.100000)"
fill="#000000" stroke="none">
<path d="M12 628 c-15 -15 -17 -288 -2 -288 6 0 10 53 10 140 l0 140 300 0
300 0 0 -140 c0 -87 4 -140 10 -140 15 0 13 273 -2 288 -17 17 -599 17 -616 0z"/>
<path d="M50 595 c-19 -23 -8 -50 22 -53 34 -4 50 34 22 55 -23 17 -29 16 -44
-2z m40 -26 c0 -5 -7 -9 -15 -9 -15 0 -20 12 -9 23 8 8 24 -1 24 -14z"/>
<path d="M546 597 c-26 -19 -13 -57 20 -57 28 0 42 25 27 48 -13 22 -26 24
-47 9z m34 -28 c0 -5 -7 -9 -15 -9 -15 0 -20 12 -9 23 8 8 24 -1 24 -14z"/>
<path d="M226 576 c-96 -36 -165 -127 -173 -228 -7 -79 8 -135 50 -190 68 -88
186 -128 294 -99 101 27 182 127 190 233 7 79 -8 135 -50 190 -52 68 -113 100
-200 105 -46 2 -86 -2 -111 -11z m178 -17 c25 -7 58 -30 92 -63 103 -104 103
-248 0 -352 -72 -71 -157 -92 -260 -63 -52 14 -141 103 -155 155 -14 50 -14
118 0 168 14 49 103 141 150 154 47 14 126 14 173 1z"/>
<path d="M285 541 c-3 -5 -6 -32 -6 -60 -2 -54 -13 -60 -24 -11 -4 17 -14 37
-22 46 -14 13 -18 13 -42 -2 -30 -19 -51 -43 -51 -59 0 -6 16 -30 36 -54 l36
-42 -45 22 c-38 19 -48 20 -61 9 -18 -14 -22 -95 -7 -105 5 -3 32 -6 60 -6 54
-2 60 -13 11 -24 -17 -4 -37 -14 -46 -22 -13 -14 -13 -18 2 -42 19 -30 43 -51
59 -51 6 0 30 16 54 36 l42 36 -22 -45 c-19 -38 -20 -48 -9 -61 14 -18 95 -22
105 -7 3 5 6 32 6 60 2 54 13 60 24 11 4 -17 14 -37 22 -46 14 -13 18 -13 42
2 30 19 51 43 51 59 0 6 -16 30 -36 54 l-36 42 45 -22 c38 -19 48 -20 61 -9
18 14 22 95 7 105 -5 3 -32 6 -60 6 -54 2 -60 13 -11 24 17 4 37 14 46 22 13
14 13 18 -2 42 -19 30 -43 51 -59 51 -6 0 -30 -16 -54 -36 l-42 -36 22 45 c19
38 20 48 9 61 -14 18 -95 22 -105 7z m94 -17 c2 -2 -7 -26 -20 -54 -18 -39
-29 -50 -44 -48 -16 2 -20 10 -19 44 1 64 8 75 46 67 18 -3 35 -7 37 -9z
m-137 -72 c16 -41 16 -48 3 -61 -13 -13 -19 -11 -50 19 -19 19 -35 39 -35 46
0 14 52 55 60 48 2 -3 12 -26 22 -52z m241 11 c28 -32 24 -44 -28 -64 -44 -17
-51 -17 -64 -4 -13 13 -11 19 19 50 38 40 50 42 73 18z m-106 -85 c51 -48 15
-138 -56 -138 -47 0 -81 32 -81 79 0 72 84 109 137 59z m-204 -20 c36 -18 47
-28 45 -43 -3 -17 -10 -20 -52 -18 -27 1 -52 5 -56 10 -9 9 -1 73 9 73 3 0 28
-10 54 -22z m337 -17 c21 -6 25 -12 22 -42 -2 -19 -6 -36 -8 -38 -2 -2 -26 7
-54 20 -46 22 -62 44 -43 62 8 9 50 7 83 -2z m-260 -96 c11 -13 8 -21 -20 -50
-19 -19 -39 -35 -46 -35 -7 0 -22 13 -34 30 l-21 30 28 10 c15 6 37 14 48 19
28 13 31 13 45 -4z m197 -17 c41 -39 41 -51 3 -78 -28 -20 -30 -20 -37 -3 -3
10 -12 33 -20 52 -10 25 -10 37 -2 47 16 19 19 18 56 -18z m-102 -19 c4 -6 4
-30 0 -55 -6 -43 -7 -44 -46 -44 -21 0 -39 3 -39 8 0 4 10 28 22 55 22 46 48
61 63 36z"/>
<path d="M0 162 c0 -94 4 -142 12 -150 17 -17 599 -17 616 0 15 15 17 288 2
288 -6 0 -10 -53 -10 -140 l0 -140 -300 0 -300 0 0 140 c0 87 -4 140 -10 140
-6 0 -10 -53 -10 -138z"/>
<path d="M43 94 c-15 -39 38 -67 60 -32 8 12 7 21 -2 32 -17 21 -50 20 -58 0z
m45 -16 c-6 -18 -28 -21 -28 -4 0 9 7 16 16 16 9 0 14 -5 12 -12z"/>
<path d="M541 96 c-26 -31 14 -71 45 -45 21 17 14 53 -12 57 -11 2 -26 -4 -33
-12z m39 -22 c0 -9 -5 -14 -12 -12 -18 6 -21 28 -4 28 9 0 16 -7 16 -16z"/>
</g>
</svg>
