<?xml version="1.0" standalone="no"?>
<!DOCTYPE svg PUBLIC "-//W3C//DTD SVG 20010904//EN"
 "http://www.w3.org/TR/2001/REC-SVG-20010904/DTD/svg10.dtd">
<svg version="1.0" xmlns="http://www.w3.org/2000/svg"
 width="64.000000pt" height="64.000000pt" viewBox="0 0 64.000000 64.000000"
 preserveAspectRatio="xMidYMid meet">

<g transform="translate(0.000000,64.000000) scale(0.100000,-0.100000)"
fill="#000000" stroke="none">
<path d="M231 598 c-1 -25 -5 -28 -36 -28 -28 0 -35 4 -35 20 0 11 -4 20 -10
20 -5 0 -10 -9 -10 -20 0 -16 -7 -20 -35 -20 -33 0 -35 -2 -35 -35 0 -28 -4
-35 -20 -35 -11 0 -20 -4 -20 -10 0 -5 9 -10 20 -10 16 0 20 -7 20 -35 0 -31
-3 -35 -27 -36 l-28 -1 25 -7 c19 -5 26 -14 28 -39 3 -27 0 -32 -17 -32 -12 0
-21 -4 -21 -10 0 -5 9 -10 21 -10 17 0 20 -5 17 -32 -2 -25 -9 -34 -28 -39
l-25 -7 28 -1 c24 -1 27 -5 27 -36 0 -28 -4 -35 -20 -35 -11 0 -20 -4 -20 -10
0 -5 9 -10 20 -10 16 0 20 -7 20 -35 0 -33 2 -35 35 -35 28 0 35 -4 35 -20 0
-11 5 -20 10 -20 6 0 10 9 10 20 0 16 7 20 35 20 31 0 35 -3 36 -27 l1 -28 7
25 c5 19 14 26 39 28 27 3 32 0 32 -17 0 -12 5 -21 10 -21 6 0 10 9 10 21 0
17 5 20 32 17 25 -2 34 -9 39 -28 l7 -25 1 28 c1 24 5 27 36 27 28 0 35 -4 35
-20 0 -11 5 -20 10 -20 6 0 10 9 10 20 0 16 7 20 35 20 33 0 35 2 35 35 0 28
4 35 20 35 11 0 20 5 20 10 0 6 -9 10 -20 10 -16 0 -20 7 -20 35 0 31 3 35 28
36 l27 1 -25 7 c-19 5 -26 14 -28 39 -3 27 0 32 17 32 12 0 21 5 21 10 0 6 -9
10 -21 10 -17 0 -20 5 -17 32 2 25 9 34 28 39 l25 7 -27 1 c-25 1 -28 5 -28
36 0 28 4 35 20 35 11 0 20 5 20 10 0 6 -9 10 -20 10 -16 0 -20 7 -20 35 0 33
-2 35 -35 35 -28 0 -35 4 -35 20 0 11 -4 20 -10 20 -5 0 -10 -9 -10 -20 0 -16
-7 -20 -35 -20 -31 0 -35 3 -36 28 l-1 27 -7 -25 c-5 -19 -14 -26 -39 -28 -27
-3 -32 0 -32 17 0 12 -4 21 -10 21 -5 0 -10 -9 -10 -21 0 -17 -5 -20 -32 -17
-25 2 -34 9 -39 28 l-7 25 -1 -27z m319 -278 l0 -230 -230 0 -230 0 0 230 0
230 230 0 230 0 0 -230z"/>
<path d="M117 523 c-11 -10 -8 -53 3 -53 6 0 10 9 10 20 0 13 7 20 20 20 11 0
20 5 20 10 0 11 -43 14 -53 3z"/>
<path d="M470 521 c0 -6 9 -11 20 -11 13 0 20 -7 20 -20 0 -11 5 -20 11 -20 6
0 9 12 7 28 -2 21 -9 28 -30 30 -16 2 -28 -1 -28 -7z"/>
<path d="M180 360 c-23 -23 -26 -49 -7 -72 19 -25 51 -30 73 -13 18 15 17 16
-13 10 -25 -5 -34 -2 -43 14 -18 35 4 64 43 56 30 -6 31 -5 13 10 -26 20 -42
19 -66 -5z"/>
<path d="M280 321 c0 -28 5 -51 10 -51 6 0 10 6 10 14 0 7 14 16 31 20 26 5
30 10 27 33 -3 24 -8 28 -40 31 l-38 3 0 -50z m58 16 c2 -12 -3 -17 -17 -17
-15 0 -21 6 -21 21 0 25 33 22 38 -4z"/>
<path d="M380 330 c0 -31 5 -43 25 -56 23 -15 27 -15 50 0 20 13 25 25 25 56
0 22 -4 40 -10 40 -5 0 -10 -15 -10 -34 0 -18 -7 -39 -15 -46 -22 -19 -45 5
-45 46 0 19 -4 34 -10 34 -5 0 -10 -18 -10 -40z"/>
<path d="M112 143 c2 -22 9 -29 31 -31 15 -2 27 1 27 7 0 6 -9 11 -20 11 -13
0 -20 7 -20 20 0 11 -5 20 -11 20 -6 0 -9 -12 -7 -27z"/>
<path d="M510 150 c0 -13 -7 -20 -20 -20 -11 0 -20 -5 -20 -11 0 -6 12 -9 28
-7 21 2 28 9 30 31 2 15 -1 27 -7 27 -6 0 -11 -9 -11 -20z"/>
</g>
</svg>
