<?xml version="1.0" standalone="no"?>
<!DOCTYPE svg PUBLIC "-//W3C//DTD SVG 20010904//EN"
 "http://www.w3.org/TR/2001/REC-SVG-20010904/DTD/svg10.dtd">
<svg version="1.0" xmlns="http://www.w3.org/2000/svg"
 width="64.000000pt" height="64.000000pt" viewBox="0 0 64.000000 64.000000"
 preserveAspectRatio="xMidYMid meet">

<g transform="translate(0.000000,64.000000) scale(0.100000,-0.100000)"
fill="#000000" stroke="none">
<path d="M4 487 c-2 -7 -3 -78 -2 -157 l3 -145 31 -3 c22 -2 34 -9 37 -23 5
-17 15 -19 117 -19 103 0 112 2 117 20 7 26 19 26 26 0 7 -27 47 -27 54 0 5
18 15 20 127 22 l121 3 0 155 0 155 -313 3 c-250 2 -314 0 -318 -11z m616
-147 l0 -140 -300 0 -300 0 0 140 0 140 300 0 300 0 0 -140z m-510 -170 c0 -5
-4 -10 -10 -10 -5 0 -10 5 -10 10 0 6 5 10 10 10 6 0 10 -4 10 -10z m180 0 c0
-6 -33 -10 -80 -10 -47 0 -80 4 -80 10 0 6 33 10 80 10 47 0 80 -4 80 -10z
m80 0 c0 -5 -4 -10 -10 -10 -5 0 -10 5 -10 10 0 6 5 10 10 10 6 0 10 -4 10
-10z"/>
<path d="M40 450 c0 -5 5 -10 10 -10 6 0 10 5 10 10 0 6 -4 10 -10 10 -5 0
-10 -4 -10 -10z"/>
<path d="M115 451 c-44 -19 -70 -60 -70 -112 0 -42 5 -53 33 -81 l32 -33 193
-3 c135 -2 202 1 222 9 23 9 26 13 13 16 -13 3 -18 14 -18 40 0 35 0 36 20 18
11 -10 20 -25 20 -34 0 -13 2 -13 18 2 11 12 17 33 17 67 0 43 -5 54 -33 82
l-32 33 -198 2 c-108 1 -206 -2 -217 -6z m75 -19 c0 -4 -16 -23 -35 -42 l-35
-34 -23 22 c-22 23 -22 23 -2 38 18 13 20 13 23 0 5 -23 22 -20 22 4 0 15 7
20 25 20 14 0 25 -4 25 -8z m199 -18 c-19 -20 -24 -37 -24 -74 0 -37 5 -54 24
-74 l24 -26 -93 0 -93 0 24 26 c34 36 34 112 0 148 l-24 26 93 0 93 0 -24 -26z
m121 18 c0 -5 -11 -19 -25 -32 l-25 -23 0 31 c0 27 4 32 25 32 14 0 25 -4 25
-8z m-70 -39 l0 -37 -22 22 c-23 23 -23 23 -4 38 26 19 26 19 26 -23z m-200 7
c10 -18 8 -20 -26 -20 -36 0 -37 0 -19 20 10 11 22 20 26 20 5 0 13 -9 19 -20z
m320 0 c10 -18 8 -20 -26 -20 -36 0 -37 0 -19 20 10 11 22 20 26 20 5 0 13 -9
19 -20z m-460 -55 l23 -25 -31 0 c-27 0 -32 4 -32 25 0 14 4 25 8 25 5 0 19
-11 32 -25z m320 0 l23 -25 -31 0 c-27 0 -32 4 -32 25 0 14 4 25 8 25 5 0 19
-11 32 -25z m-244 4 c10 -17 -13 -36 -27 -22 -12 12 -4 33 11 33 5 0 12 -5 16
-11z m84 -14 c0 -14 -4 -25 -8 -25 -5 0 -19 11 -32 25 l-23 25 31 0 c27 0 32
-4 32 -25z m236 14 c10 -17 -13 -36 -27 -22 -12 12 -4 33 11 33 5 0 12 -5 16
-11z m84 -14 c0 -14 -4 -25 -8 -25 -5 0 -19 11 -32 25 l-23 25 31 0 c27 0 32
-4 32 -25z m-340 -56 c0 -5 -9 -13 -20 -19 -18 -10 -20 -8 -20 26 0 36 0 37
20 19 11 -10 20 -22 20 -26z m-115 1 c-10 -11 -22 -20 -26 -20 -5 0 -13 9 -19
20 -10 18 -8 20 26 20 36 0 37 0 19 -20z m55 -10 c0 -25 -4 -30 -25 -30 -31 0
-31 7 -3 37 27 29 28 29 28 -7z m265 10 c-10 -11 -22 -20 -26 -20 -5 0 -13 9
-19 20 -10 18 -8 20 26 20 36 0 37 0 19 -20z m55 -10 c0 -25 -4 -30 -25 -30
-31 0 -31 7 -3 37 27 29 28 29 28 -7z"/>
<path d="M580 450 c0 -5 5 -10 10 -10 6 0 10 5 10 10 0 6 -4 10 -10 10 -5 0
-10 -4 -10 -10z"/>
<path d="M40 230 c0 -5 5 -10 10 -10 6 0 10 5 10 10 0 6 -4 10 -10 10 -5 0
-10 -4 -10 -10z"/>
<path d="M580 230 c0 -5 5 -10 10 -10 6 0 10 5 10 10 0 6 -4 10 -10 10 -5 0
-10 -4 -10 -10z"/>
</g>
</svg>
