<?xml version="1.0" standalone="no"?>
<!DOCTYPE svg PUBLIC "-//W3C//DTD SVG 20010904//EN"
 "http://www.w3.org/TR/2001/REC-SVG-20010904/DTD/svg10.dtd">
<svg version="1.0" xmlns="http://www.w3.org/2000/svg"
 width="64.000000pt" height="64.000000pt" viewBox="0 0 64.000000 64.000000"
 preserveAspectRatio="xMidYMid meet">

<g transform="translate(0.000000,64.000000) scale(0.100000,-0.100000)"
fill="#000000" stroke="none">
<path d="M92 598 c-17 -17 -17 -539 0 -556 17 -17 439 -17 456 0 17 17 17 539
0 556 -17 17 -439 17 -456 0z m438 -278 l0 -270 -210 0 -210 0 0 270 0 270
210 0 210 0 0 -270z"/>
<path d="M135 551 c-6 -11 9 -23 19 -14 9 9 7 23 -3 23 -6 0 -12 -4 -16 -9z"/>
<path d="M239 537 c-56 -30 -89 -84 -89 -150 0 -81 50 -146 130 -167 72 -19
160 21 195 91 40 77 1 190 -78 228 -56 27 -103 27 -158 -2z m159 -27 c43 -26
76 -98 67 -143 -11 -50 -35 -83 -75 -106 -89 -50 -192 1 -215 106 -9 45 24
117 67 143 43 26 113 26 156 0z"/>
<path d="M286 424 c-24 -24 -20 -61 9 -80 23 -15 27 -15 50 0 42 28 24 96 -25
96 -10 0 -26 -7 -34 -16z m57 -28 c9 -22 -19 -42 -37 -26 -19 15 -10 40 14 40
10 0 20 -6 23 -14z"/>
<path d="M482 551 c4 -13 18 -16 19 -4 0 4 -5 9 -11 12 -7 2 -11 -2 -8 -8z"/>
<path d="M190 135 c0 -30 5 -55 10 -55 6 0 10 9 10 20 0 11 7 20 15 20 9 0 15
-9 15 -21 0 -40 25 -13 28 31 4 48 -15 80 -24 42 -8 -27 -34 -29 -34 -2 0 11
-4 20 -10 20 -5 0 -10 -25 -10 -55z"/>
<path d="M287 183 c-4 -3 -7 -28 -7 -55 0 -46 1 -48 28 -48 35 0 52 16 52 51
0 43 -49 77 -73 52z m43 -48 c0 -14 -4 -25 -10 -25 -5 0 -10 11 -10 25 0 14 5
25 10 25 6 0 10 -11 10 -25z"/>
<path d="M374 176 c-3 -8 -4 -31 -2 -52 2 -32 7 -40 26 -42 33 -5 52 15 52 54
0 23 -6 37 -19 44 -27 14 -51 13 -57 -4z m54 -44 c2 -15 -2 -22 -12 -22 -11 0
-16 9 -16 26 0 31 23 28 28 -4z"/>
<path d="M136 102 c-3 -6 -1 -14 5 -17 15 -10 25 3 12 16 -7 7 -13 7 -17 1z"/>
<path d="M485 99 c-10 -15 3 -25 16 -12 7 7 7 13 1 17 -6 3 -14 1 -17 -5z"/>
</g>
</svg>
