<?xml version="1.0" standalone="no"?>
<!DOCTYPE svg PUBLIC "-//W3C//DTD SVG 20010904//EN"
 "http://www.w3.org/TR/2001/REC-SVG-20010904/DTD/svg10.dtd">
<svg version="1.0" xmlns="http://www.w3.org/2000/svg"
 width="64.000000pt" height="64.000000pt" viewBox="0 0 64.000000 64.000000"
 preserveAspectRatio="xMidYMid meet">

<g transform="translate(0.000000,64.000000) scale(0.100000,-0.100000)"
fill="#000000" stroke="none">
<path d="M80 605 c0 -16 -6 -25 -15 -25 -8 0 -15 -4 -15 -10 0 -5 -9 -10 -20
-10 -17 0 -20 -7 -20 -40 0 -33 3 -40 20 -40 11 0 20 -4 20 -10 0 -5 7 -10 15
-10 8 0 15 -4 15 -10 0 -5 -7 -10 -15 -10 -8 0 -15 -4 -15 -10 0 -5 -9 -10
-20 -10 -17 0 -20 -7 -20 -40 0 -33 3 -40 20 -40 11 0 20 -4 20 -10 0 -5 7
-10 15 -10 12 0 15 -14 15 -65 l0 -65 -35 0 -35 0 0 -70 0 -70 35 0 c28 0 35
-4 35 -20 0 -19 7 -20 240 -20 153 0 240 4 240 10 0 6 -83 10 -230 10 -147 0
-230 4 -230 10 0 6 35 10 85 10 l85 0 0 70 0 70 -60 0 c-33 0 -60 -4 -60 -10
0 -5 23 -10 50 -10 28 0 50 -4 50 -10 0 -6 -43 -10 -110 -10 -67 0 -110 4
-110 10 0 6 23 10 50 10 28 0 50 5 50 10 0 6 -7 10 -15 10 -12 0 -15 14 -15
65 0 51 3 65 15 65 12 0 15 13 15 60 0 47 -3 60 -15 60 -8 0 -15 5 -15 10 0 6
7 10 15 10 12 0 15 13 15 60 0 47 -3 60 -15 60 -8 0 -15 7 -15 15 0 8 7 15 15
15 8 0 15 5 15 10 0 6 -11 10 -25 10 -20 0 -25 -5 -25 -25z m30 -85 c0 -33 -3
-40 -20 -40 -17 0 -20 7 -20 40 0 33 3 40 20 40 17 0 20 -7 20 -40z m-60 0 c0
-11 -4 -20 -10 -20 -5 0 -10 9 -10 20 0 11 5 20 10 20 6 0 10 -9 10 -20z m60
-140 c0 -33 -3 -40 -20 -40 -17 0 -20 7 -20 40 0 33 3 40 20 40 17 0 20 -7 20
-40z m-60 0 c0 -11 -4 -20 -10 -20 -5 0 -10 9 -10 20 0 11 5 20 10 20 6 0 10
-9 10 -20z m200 -260 c0 -6 -43 -10 -110 -10 -67 0 -110 4 -110 10 0 6 43 10
110 10 67 0 110 -4 110 -10z m0 -40 c0 -6 -43 -10 -110 -10 -67 0 -110 4 -110
10 0 6 43 10 110 10 67 0 110 -4 110 -10z"/>
<path d="M150 620 c0 -6 83 -10 230 -10 l230 0 0 -290 c0 -251 -2 -290 -15
-290 -8 0 -15 -4 -15 -10 0 -5 11 -10 25 -10 l25 0 0 310 0 310 -240 0 c-153
0 -240 -4 -240 -10z"/>
<path d="M240 575 c0 -8 -9 -15 -20 -15 -13 0 -20 -7 -20 -20 0 -11 -7 -20
-15 -20 -8 0 -15 -4 -15 -10 0 -5 7 -10 15 -10 8 0 15 -4 15 -10 0 -5 -7 -10
-15 -10 -8 0 -15 -4 -15 -10 0 -5 7 -10 15 -10 8 0 15 -4 15 -10 0 -5 -7 -10
-15 -10 -8 0 -15 -4 -15 -10 0 -5 7 -10 15 -10 8 0 15 -4 15 -10 0 -5 -7 -10
-15 -10 -8 0 -15 -4 -15 -10 0 -5 7 -10 15 -10 8 0 15 -9 15 -20 0 -13 7 -20
20 -20 11 0 20 -7 20 -15 0 -8 5 -15 10 -15 6 0 10 7 10 15 0 8 5 15 10 15 6
0 10 -7 10 -15 0 -8 5 -15 10 -15 6 0 10 7 10 15 0 8 5 15 10 15 6 0 10 -7 10
-15 0 -8 5 -15 10 -15 6 0 10 7 10 15 0 8 5 15 10 15 6 0 10 -7 10 -15 0 -8 5
-15 10 -15 6 0 10 7 10 15 0 8 9 15 20 15 13 0 20 7 20 20 0 11 7 20 15 20 8
0 15 5 15 10 0 6 -7 10 -15 10 -8 0 -15 5 -15 10 0 6 7 10 15 10 8 0 15 5 15
10 0 6 -7 10 -15 10 -8 0 -15 5 -15 10 0 6 7 10 15 10 8 0 15 5 15 10 0 6 -7
10 -15 10 -8 0 -15 5 -15 10 0 6 7 10 15 10 8 0 15 5 15 10 0 6 -7 10 -15 10
-8 0 -15 9 -15 20 0 13 -7 20 -20 20 -11 0 -20 7 -20 15 0 8 -4 15 -10 15 -5
0 -10 -7 -10 -15 0 -8 -4 -15 -10 -15 -5 0 -10 7 -10 15 0 8 -4 15 -10 15 -5
0 -10 -7 -10 -15 0 -8 -4 -15 -10 -15 -5 0 -10 7 -10 15 0 8 -4 15 -10 15 -5
0 -10 -7 -10 -15 0 -8 -4 -15 -10 -15 -5 0 -10 7 -10 15 0 8 -4 15 -10 15 -5
0 -10 -7 -10 -15z m160 -125 l0 -90 -90 0 -90 0 0 90 0 90 90 0 90 0 0 -90z"/>
<path d="M260 450 l0 -50 50 0 50 0 0 50 c0 43 -3 50 -20 50 -11 0 -20 -4 -20
-10 0 -5 5 -10 10 -10 6 0 10 -13 10 -30 0 -27 -3 -30 -30 -30 -27 0 -30 3
-30 30 0 17 5 30 10 30 6 0 10 5 10 10 0 6 -9 10 -20 10 -17 0 -20 -7 -20 -50z"/>
<path d="M450 560 c0 -27 3 -30 30 -30 27 0 30 3 30 30 0 27 -3 30 -30 30 -27
0 -30 -3 -30 -30z m40 0 c0 -5 -4 -10 -10 -10 -5 0 -10 5 -10 10 0 6 5 10 10
10 6 0 10 -4 10 -10z"/>
<path d="M530 560 c0 -27 3 -30 30 -30 27 0 30 3 30 30 0 27 -3 30 -30 30 -27
0 -30 -3 -30 -30z m40 0 c0 -5 -4 -10 -10 -10 -5 0 -10 5 -10 10 0 6 5 10 10
10 6 0 10 -4 10 -10z"/>
<path d="M534 496 c-10 -26 4 -48 28 -44 33 4 33 52 0 56 -13 2 -25 -3 -28
-12z m36 -16 c0 -5 -4 -10 -10 -10 -5 0 -10 5 -10 10 0 6 5 10 10 10 6 0 10
-4 10 -10z"/>
<path d="M542 414 c-19 -21 -7 -46 20 -42 17 2 23 10 23 28 0 29 -24 37 -43
14z m28 -14 c0 -5 -4 -10 -10 -10 -5 0 -10 5 -10 10 0 6 5 10 10 10 6 0 10 -4
10 -10z"/>
<path d="M450 325 c0 -14 5 -25 10 -25 6 0 10 7 10 15 0 8 5 15 10 15 6 0 10
-50 10 -130 0 -80 -4 -130 -10 -130 -6 0 -10 42 -10 105 0 63 -4 105 -10 105
-6 0 -10 -45 -10 -115 l0 -115 30 0 30 0 0 150 0 150 -30 0 c-25 0 -30 -4 -30
-25z"/>
<path d="M530 200 l0 -150 30 0 30 0 0 150 0 150 -30 0 -30 0 0 -150z m40 0
c0 -80 -4 -130 -10 -130 -6 0 -10 50 -10 130 0 80 4 130 10 130 6 0 10 -50 10
-130z"/>
<path d="M120 270 c0 -5 9 -10 20 -10 11 0 20 5 20 10 0 6 -9 10 -20 10 -11 0
-20 -4 -20 -10z"/>
<path d="M180 270 c0 -5 9 -10 20 -10 11 0 20 5 20 10 0 6 -9 10 -20 10 -11 0
-20 -4 -20 -10z"/>
<path d="M120 230 c0 -5 9 -10 20 -10 11 0 20 5 20 10 0 6 -9 10 -20 10 -11 0
-20 -4 -20 -10z"/>
<path d="M180 230 c0 -5 9 -10 20 -10 11 0 20 5 20 10 0 6 -9 10 -20 10 -11 0
-20 -4 -20 -10z"/>
<path d="M290 160 c0 -27 3 -30 30 -30 27 0 30 3 30 30 0 27 -3 30 -30 30 -27
0 -30 -3 -30 -30z m40 0 c0 -5 -4 -10 -10 -10 -5 0 -10 5 -10 10 0 6 5 10 10
10 6 0 10 -4 10 -10z"/>
<path d="M370 160 c0 -27 3 -30 30 -30 27 0 30 3 30 30 0 27 -3 30 -30 30 -27
0 -30 -3 -30 -30z m40 0 c0 -5 -4 -10 -10 -10 -5 0 -10 5 -10 10 0 6 5 10 10
10 6 0 10 -4 10 -10z"/>
<path d="M290 80 c0 -27 3 -30 30 -30 27 0 30 3 30 30 0 27 -3 30 -30 30 -27
0 -30 -3 -30 -30z m40 0 c0 -5 -4 -10 -10 -10 -5 0 -10 5 -10 10 0 6 5 10 10
10 6 0 10 -4 10 -10z"/>
<path d="M370 80 c0 -27 3 -30 30 -30 27 0 30 3 30 30 0 27 -3 30 -30 30 -27
0 -30 -3 -30 -30z m40 0 c0 -5 -4 -10 -10 -10 -5 0 -10 5 -10 10 0 6 5 10 10
10 6 0 10 -4 10 -10z"/>
</g>
</svg>
