<?xml version="1.0" standalone="no"?>
<!DOCTYPE svg PUBLIC "-//W3C//DTD SVG 20010904//EN"
 "http://www.w3.org/TR/2001/REC-SVG-20010904/DTD/svg10.dtd">
<svg version="1.0" xmlns="http://www.w3.org/2000/svg"
 width="64.000000pt" height="64.000000pt" viewBox="0 0 64.000000 64.000000"
 preserveAspectRatio="xMidYMid meet">

<g transform="translate(0.000000,64.000000) scale(0.100000,-0.100000)"
fill="#000000" stroke="none">
<path d="M92 505 l-42 -85 0 -185 0 -185 270 0 270 0 0 185 0 185 -42 85 -42
85 -186 0 -186 0 -42 -85z m436 0 c18 -36 32 -68 32 -70 0 -3 -108 -5 -240 -5
-132 0 -240 2 -240 5 0 2 14 34 32 70 l32 65 176 0 176 0 32 -65z m42 -265 l0
-170 -250 0 -250 0 0 170 0 170 250 0 250 0 0 -170z"/>
<path d="M150 550 c0 -5 5 -10 10 -10 6 0 10 5 10 10 0 6 -4 10 -10 10 -5 0
-10 -4 -10 -10z"/>
<path d="M470 550 c0 -5 5 -10 10 -10 6 0 10 5 10 10 0 6 -4 10 -10 10 -5 0
-10 -4 -10 -10z"/>
<path d="M260 540 c0 -6 27 -10 60 -10 33 0 60 4 60 10 0 6 -27 10 -60 10 -33
0 -60 -4 -60 -10z"/>
<path d="M240 510 c0 -6 33 -10 80 -10 47 0 80 4 80 10 0 6 -33 10 -80 10 -47
0 -80 -4 -80 -10z"/>
<path d="M220 480 c0 -6 40 -10 100 -10 60 0 100 4 100 10 0 6 -40 10 -100 10
-60 0 -100 -4 -100 -10z"/>
<path d="M100 450 c0 -5 5 -10 10 -10 6 0 10 5 10 10 0 6 -4 10 -10 10 -5 0
-10 -4 -10 -10z"/>
<path d="M520 450 c0 -5 5 -10 10 -10 6 0 10 5 10 10 0 6 -4 10 -10 10 -5 0
-10 -4 -10 -10z"/>
<path d="M80 390 c0 -5 5 -10 10 -10 6 0 10 5 10 10 0 6 -4 10 -10 10 -5 0
-10 -4 -10 -10z"/>
<path d="M540 390 c0 -5 5 -10 10 -10 6 0 10 5 10 10 0 6 -4 10 -10 10 -5 0
-10 -4 -10 -10z"/>
<path d="M170 365 c-14 -8 -34 -12 -44 -8 -15 4 -18 2 -13 -11 4 -10 0 -30 -8
-46 -19 -37 -19 -83 0 -120 8 -16 12 -36 9 -44 -4 -12 -1 -15 12 -14 11 1 38
-4 61 -11 37 -12 49 -12 85 0 24 7 51 12 60 11 12 -1 17 4 16 16 -1 9 4 36 11
60 12 36 12 48 0 85 -7 23 -12 50 -11 61 1 13 -2 16 -14 12 -8 -3 -28 1 -44 9
-36 19 -87 19 -120 0z m104 -15 c14 -5 26 -14 26 -20 0 -7 -6 -8 -19 0 -11 5
-34 10 -51 10 -17 0 -40 -5 -51 -10 -13 -8 -19 -7 -19 0 0 24 70 37 114 20z
m0 -38 c3 -5 -17 -8 -44 -8 -27 0 -47 3 -44 8 3 4 23 8 44 8 21 0 41 -4 44 -8z
m-134 -21 c-13 -25 -13 -77 0 -102 8 -13 7 -19 0 -19 -12 0 -30 42 -30 70 0
28 18 70 30 70 7 0 8 -6 0 -19z m204 -19 c10 -37 -2 -93 -23 -100 -10 -3 -11
0 -2 16 6 11 11 35 11 52 0 17 -5 41 -11 52 -9 16 -8 19 2 16 8 -3 18 -19 23
-36z m-178 -31 c0 -28 -3 -48 -8 -45 -15 9 -9 94 7 94 1 0 1 -22 1 -49z m84
39 c0 -5 -9 -10 -20 -10 -11 0 -20 5 -20 10 0 6 9 10 20 10 11 0 20 -4 20 -10z
m60 -40 c0 -21 -4 -41 -8 -44 -5 -3 -8 17 -8 44 0 27 3 47 8 44 4 -3 8 -23 8
-44z m-110 0 c0 -11 -4 -20 -10 -20 -5 0 -10 9 -10 20 0 11 5 20 10 20 6 0 10
-9 10 -20z m80 0 c0 -11 -4 -20 -10 -20 -5 0 -10 9 -10 20 0 11 5 20 10 20 6
0 10 -9 10 -20z m-40 0 c0 -5 -4 -10 -10 -10 -5 0 -10 5 -10 10 0 6 5 10 10
10 6 0 10 -4 10 -10z m10 -40 c0 -5 -9 -10 -20 -10 -11 0 -20 5 -20 10 0 6 9
10 20 10 11 0 20 -4 20 -10z m24 -32 c-3 -4 -23 -8 -44 -8 -21 0 -41 4 -44 8
-3 5 17 8 44 8 27 0 47 -3 44 -8z m-44 -28 c17 0 41 5 52 11 16 9 19 8 16 -2
-3 -8 -19 -18 -36 -23 -37 -10 -93 2 -100 23 -3 10 0 11 16 2 11 -6 35 -11 52
-11z"/>
<path d="M410 330 l0 -30 70 0 70 0 0 30 0 30 -70 0 -70 0 0 -30z m60 0 c0 -5
-9 -10 -20 -10 -11 0 -20 5 -20 10 0 6 9 10 20 10 11 0 20 -4 20 -10z m60 0
c0 -5 -9 -10 -20 -10 -11 0 -20 5 -20 10 0 6 9 10 20 10 11 0 20 -4 20 -10z"/>
<path d="M440 240 c0 -16 5 -30 10 -30 6 0 10 14 10 30 0 17 -4 30 -10 30 -5
0 -10 -13 -10 -30z"/>
<path d="M470 240 c0 -16 5 -30 10 -30 6 0 10 14 10 30 0 17 -4 30 -10 30 -5
0 -10 -13 -10 -30z"/>
<path d="M500 240 c0 -16 5 -30 10 -30 6 0 10 14 10 30 0 17 -4 30 -10 30 -5
0 -10 -13 -10 -30z"/>
<path d="M427 184 c-4 -4 -7 -25 -7 -46 l0 -38 59 0 c38 0 61 -4 64 -12 2 -7
8 -9 13 -5 5 4 3 11 -3 15 -6 4 -13 25 -15 47 l-3 40 -50 3 c-28 2 -54 0 -58
-4z m93 -39 c0 -22 -4 -25 -40 -25 -36 0 -40 3 -40 25 0 23 4 25 40 25 36 0
40 -2 40 -25z"/>
<path d="M450 145 c0 -8 5 -15 10 -15 6 0 10 7 10 15 0 8 -4 15 -10 15 -5 0
-10 -7 -10 -15z"/>
<path d="M490 145 c0 -8 5 -15 10 -15 6 0 10 7 10 15 0 8 -4 15 -10 15 -5 0
-10 -7 -10 -15z"/>
<path d="M80 90 c0 -5 5 -10 10 -10 6 0 10 5 10 10 0 6 -4 10 -10 10 -5 0 -10
-4 -10 -10z"/>
</g>
</svg>
