<?xml version="1.0" standalone="no"?>
<!DOCTYPE svg PUBLIC "-//W3C//DTD SVG 20010904//EN"
 "http://www.w3.org/TR/2001/REC-SVG-20010904/DTD/svg10.dtd">
<svg version="1.0" xmlns="http://www.w3.org/2000/svg"
 width="64.000000pt" height="64.000000pt" viewBox="0 0 64.000000 64.000000"
 preserveAspectRatio="xMidYMid meet">

<g transform="translate(0.000000,64.000000) scale(0.100000,-0.100000)"
fill="#000000" stroke="none">
<path d="M40 517 c0 -12 -9 -28 -20 -35 -19 -11 -20 -23 -20 -162 0 -139 1
-151 20 -162 11 -7 20 -23 20 -35 0 -13 5 -23 10 -23 6 0 10 11 10 25 0 18 5
25 20 25 15 0 20 -7 20 -25 0 -14 5 -25 10 -25 6 0 10 11 10 25 0 18 5 25 20
25 15 0 20 -7 20 -25 0 -14 5 -25 10 -25 6 0 10 11 10 25 0 18 5 25 20 25 15
0 20 -7 20 -25 0 -14 5 -25 10 -25 6 0 10 11 10 25 0 18 5 25 20 25 15 0 20
-7 20 -25 0 -14 5 -25 10 -25 6 0 10 11 10 25 0 18 5 25 20 25 15 0 20 -7 20
-25 0 -14 5 -25 10 -25 6 0 10 11 10 25 0 18 5 25 20 25 15 0 20 -7 20 -25 0
-14 5 -25 10 -25 6 0 10 11 10 25 0 18 5 25 20 25 15 0 20 -7 20 -25 0 -14 5
-25 10 -25 6 0 10 11 10 25 0 18 5 25 20 25 15 0 20 -7 20 -25 0 -14 5 -25 10
-25 6 0 10 11 10 25 0 18 5 25 20 25 15 0 20 -7 20 -25 0 -14 5 -25 10 -25 6
0 10 10 10 23 0 12 9 28 20 35 19 11 20 23 20 162 0 139 -1 151 -20 162 -11 7
-20 23 -20 35 0 13 -4 23 -10 23 -5 0 -10 -11 -10 -25 0 -18 -5 -25 -20 -25
-15 0 -20 7 -20 25 0 14 -4 25 -10 25 -5 0 -10 -11 -10 -25 0 -18 -5 -25 -20
-25 -15 0 -20 7 -20 25 0 14 -4 25 -10 25 -5 0 -10 -11 -10 -25 0 -18 -5 -25
-20 -25 -15 0 -20 7 -20 25 0 14 -4 25 -10 25 -5 0 -10 -11 -10 -25 0 -18 -5
-25 -20 -25 -15 0 -20 7 -20 25 0 14 -4 25 -10 25 -5 0 -10 -11 -10 -25 0 -18
-5 -25 -20 -25 -15 0 -20 7 -20 25 0 14 -4 25 -10 25 -5 0 -10 -11 -10 -25 0
-18 -5 -25 -20 -25 -15 0 -20 7 -20 25 0 14 -4 25 -10 25 -5 0 -10 -11 -10
-25 0 -18 -5 -25 -20 -25 -15 0 -20 7 -20 25 0 14 -4 25 -10 25 -5 0 -10 -11
-10 -25 0 -18 -5 -25 -20 -25 -15 0 -20 7 -20 25 0 14 -4 25 -10 25 -5 0 -10
-11 -10 -25 0 -18 -5 -25 -20 -25 -15 0 -20 7 -20 25 0 14 -4 25 -10 25 -5 0
-10 -10 -10 -23z m578 -94 c2 -24 -1 -43 -6 -43 -5 0 -15 -13 -22 -30 -10 -24
-10 -36 0 -60 7 -16 17 -30 22 -30 5 0 8 -19 6 -42 l-3 -43 -295 0 -295 0 -3
43 c-2 23 1 42 6 42 5 0 15 14 22 30 10 24 10 36 0 60 -7 17 -16 30 -21 30
-10 0 -12 73 -2 83 4 4 137 6 297 5 l291 -3 3 -42z m-586 -125 c-9 -20 -11
-18 -11 22 0 40 2 42 11 23 8 -17 8 -29 0 -45z m588 20 c-1 -35 -3 -40 -11
-25 -10 17 -5 67 6 67 3 0 5 -19 5 -42z"/>
<path d="M110 320 c0 -53 4 -90 10 -90 6 0 10 33 10 80 l0 80 29 0 c56 0 67
-60 12 -68 -19 -3 -31 -22 -13 -22 4 0 16 -16 26 -35 11 -19 23 -35 28 -35 12
0 10 8 -8 40 -16 26 -16 28 5 49 25 25 26 39 5 69 -12 17 -25 22 -60 22 l-44
0 0 -90z"/>
<path d="M284 399 c-6 -11 -43 -147 -44 -161 0 -17 18 -7 23 12 4 15 14 20 36
20 17 0 31 5 31 10 0 6 -13 10 -29 10 l-29 0 12 48 c18 69 36 61 59 -28 19
-78 23 -87 33 -78 5 6 -20 118 -36 156 -10 23 -44 30 -56 11z"/>
<path d="M407 403 c-11 -11 -8 -173 3 -173 6 0 10 35 11 83 l0 82 17 -45 c10
-25 24 -45 32 -45 8 0 22 20 32 45 l17 45 0 -82 c1 -48 5 -83 11 -83 14 0 13
167 0 175 -16 10 -38 -13 -45 -46 -8 -36 -21 -37 -30 -2 -10 43 -32 63 -48 46z"/>
</g>
</svg>
