<svg width="1480" height="800" viewBox="0 0 1480 800" fill="none" xmlns="http://www.w3.org/2000/svg">
<g clip-path="url(#clip0_5_6)">
<rect width="1480" height="800" fill="white"/>
<rect width="1480" height="800" fill="url(#paint0_linear_5_6)"/>
<g clip-path="url(#clip1_5_6)">
<path d="M247.924 676.198L168.822 597.095C167.878 596.154 166.631 595.577 165.303 595.467C163.975 595.356 162.65 595.719 161.564 596.491L104.147 653.908C103.362 654.771 102.942 655.903 102.974 657.068C103.005 658.233 103.486 659.34 104.316 660.159L137.297 693.14L134.684 695.625C133.9 696.343 132.867 696.726 131.805 696.693L124.328 696.455C123.026 696.414 121.789 695.878 120.869 694.957C119.723 693.812 118.169 693.168 116.549 693.168C114.929 693.168 113.375 693.812 112.229 694.957L109.73 697.456L147.563 735.289L150.062 732.79C151.208 731.645 151.851 730.091 151.851 728.471C151.851 726.85 151.208 725.296 150.062 724.151C149.141 723.23 148.606 721.993 148.564 720.691L148.327 713.215C148.293 712.152 148.676 711.119 149.394 710.336L151.88 707.722L184.86 740.703C185.679 741.533 186.787 742.014 187.952 742.046C189.117 742.077 190.249 741.657 191.111 740.873L248.528 683.456C249.3 682.369 249.663 681.045 249.553 679.716C249.442 678.388 248.865 677.142 247.924 676.198ZM193.854 723.852L121.168 651.165L164.874 607.459L237.561 680.145L193.854 723.852Z" fill="black"/>
</g>
<path d="M169.679 166.856L156.823 151.535L169.956 140.516L182.811 155.837L169.679 166.856Z" fill="black"/>
<path d="M177.927 207.8L130.789 151.623C129.605 150.212 129.627 148.247 130.835 147.233L168.043 116.012L187.327 138.993C187.919 139.699 188.888 139.859 189.493 139.352C190.097 138.844 190.108 137.863 189.516 137.157L170.232 114.176L187.742 99.4833C188.95 98.469 190.889 98.7888 192.073 100.2L239.211 156.377C240.395 157.788 240.373 159.753 239.165 160.767L182.258 208.517C181.05 209.531 179.111 209.211 177.927 207.8ZM180.3 188.403C179.695 188.911 179.685 189.893 180.277 190.598C180.869 191.304 181.838 191.464 182.443 190.957L208.707 168.918C209.312 168.411 209.322 167.429 208.73 166.723C208.138 166.018 207.169 165.857 206.564 166.365L180.3 188.403ZM204.698 137.471L189.7 119.597C189.108 118.891 188.139 118.731 187.534 119.238C186.929 119.746 186.919 120.728 187.511 121.433L202.51 139.308C203.102 140.013 204.07 140.174 204.675 139.666C205.28 139.159 205.29 138.177 204.698 137.471ZM200.321 141.144L185.323 123.27C184.73 122.564 183.762 122.404 183.157 122.911C182.552 123.419 182.542 124.401 183.134 125.106L198.132 142.981C198.724 143.686 199.693 143.847 200.298 143.339C200.903 142.832 200.913 141.85 200.321 141.144ZM182.719 164.617C183.311 165.322 184.28 165.483 184.885 164.975C185.49 164.467 185.5 163.486 184.908 162.78L182.765 160.227L186.048 157.472C186.653 156.964 186.663 155.982 186.071 155.277L182.857 151.447L185.046 149.61C185.651 149.102 185.661 148.121 185.069 147.415C184.477 146.709 183.508 146.549 182.903 147.057L180.715 148.893L176.43 143.786L178.618 141.95C179.223 141.442 179.233 140.46 178.641 139.755C178.049 139.049 177.08 138.889 176.476 139.396L174.287 141.233L171.073 137.402C170.481 136.697 169.512 136.536 168.907 137.044L165.624 139.799L163.482 137.245C162.889 136.54 161.921 136.379 161.316 136.887C160.711 137.394 160.701 138.376 161.293 139.082L163.436 141.635L159.058 145.308L156.916 142.755C156.323 142.049 155.355 141.889 154.75 142.396C154.145 142.904 154.135 143.886 154.727 144.591L156.869 147.145L153.586 149.9C152.982 150.407 152.971 151.389 153.563 152.095L156.777 155.925L154.589 157.761C153.984 158.269 153.973 159.251 154.566 159.956C155.158 160.662 156.126 160.822 156.731 160.315L158.92 158.478L163.205 163.585L161.016 165.422C160.412 165.929 160.401 166.911 160.993 167.617C161.586 168.323 162.554 168.483 163.159 167.975L165.348 166.139L168.562 169.969C169.154 170.675 170.123 170.835 170.727 170.328L174.01 167.573L176.153 170.126C176.745 170.832 177.714 170.992 178.319 170.485C178.924 169.977 178.934 168.995 178.342 168.29L176.199 165.736L180.577 162.063L182.719 164.617ZM216.483 151.515L214.34 148.962C213.748 148.256 212.779 148.096 212.174 148.603C211.57 149.111 211.559 150.093 212.151 150.798L214.294 153.352C214.886 154.058 215.855 154.218 216.46 153.71C217.065 153.203 217.075 152.221 216.483 151.515ZM212.105 155.188L209.963 152.635C209.371 151.929 208.402 151.769 207.797 152.276C207.192 152.784 207.182 153.766 207.774 154.471L209.917 157.025C210.509 157.731 211.477 157.891 212.082 157.383C212.687 156.876 212.697 155.894 212.105 155.188ZM204.422 163.811C205.027 163.304 205.037 162.322 204.445 161.616C203.853 160.911 202.884 160.75 202.279 161.258L176.015 183.296C175.41 183.804 175.4 184.786 175.992 185.491C176.584 186.197 177.553 186.357 178.157 185.85L204.422 163.811ZM222.911 159.176L220.768 156.622C220.176 155.917 219.207 155.756 218.602 156.264C217.997 156.771 217.987 157.753 218.579 158.459L220.722 161.012C221.314 161.718 222.283 161.878 222.888 161.371C223.492 160.863 223.503 159.881 222.911 159.176ZM218.533 162.849L216.391 160.295C215.798 159.59 214.83 159.429 214.225 159.937C213.62 160.444 213.61 161.426 214.202 162.132L216.345 164.685C216.937 165.391 217.905 165.551 218.51 165.044C219.115 164.536 219.125 163.555 218.533 162.849Z" fill="black"/>
<g clip-path="url(#clip2_5_6)">
<path d="M1314.93 50.8303L1303.65 46.726L1304.33 44.8466C1304.71 43.8092 1305.86 43.2737 1306.9 43.6513L1314.42 46.3875C1315.45 46.765 1315.99 47.9135 1315.61 48.9509L1314.93 50.8303ZM1349.44 61.2636C1349.82 60.2262 1349.28 59.0778 1348.24 58.7002L1340.73 55.964C1339.69 55.5864 1338.54 56.1219 1338.16 57.1594L1337.48 59.0388L1348.76 63.143L1349.44 61.2636ZM1284.66 116.436L1280.9 115.068C1279.25 119.605 1281.11 124.578 1285.07 127.011L1286.37 123.442C1286.41 123.328 1286.48 123.23 1286.53 123.118C1284.61 121.548 1283.77 118.896 1284.66 116.436ZM1312.77 132.67C1312.74 132.787 1312.72 132.904 1312.68 133.019L1311.38 136.588C1315.98 137.273 1320.6 134.656 1322.25 130.117L1318.49 128.749C1317.6 131.209 1315.25 132.702 1312.77 132.67ZM1307.73 129.087L1292.69 123.615C1291.65 123.237 1290.51 123.773 1290.13 124.81L1288.76 128.569C1288.38 129.607 1288.92 130.755 1289.96 131.133L1304.99 136.605C1306.03 136.982 1307.18 136.447 1307.55 135.41L1308.92 131.651C1309.3 130.613 1308.76 129.465 1307.73 129.087ZM1316.52 81.2182C1316.55 81.23 1316.59 81.2329 1316.63 81.2459C1319.73 82.3773 1323.19 80.7684 1324.32 77.6599C1325.45 74.5514 1323.84 71.101 1320.73 69.9696C1318.77 69.2548 1316.76 68.8716 1314.78 68.7832C1315.69 69.6332 1316.48 70.6474 1317.04 71.8477C1318.49 74.9744 1318.17 78.4618 1316.52 81.2182ZM1310.41 81.574C1310.43 81.5633 1310.46 81.5455 1310.48 81.5329C1310.49 81.5262 1310.5 81.5163 1310.51 81.5115C1313.51 80.113 1314.81 76.5365 1313.41 73.5373C1312.04 70.5919 1308.57 69.2988 1305.6 70.578C1303.71 71.4394 1301.96 72.5962 1300.41 74.0071C1301.65 73.967 1302.92 74.1281 1304.15 74.5782C1307.39 75.7575 1309.63 78.4557 1310.41 81.574ZM1310.13 87.3954C1309.38 89.4683 1310.45 91.7677 1312.52 92.5222C1314.6 93.2767 1316.89 92.2045 1317.65 90.1315C1318.4 88.0586 1317.33 85.7592 1315.26 85.0047C1313.19 84.2502 1310.89 85.3224 1310.13 87.3954ZM1283.82 77.8188L1273.56 106.01C1273.18 107.047 1273.72 108.195 1274.75 108.573L1302.95 118.834C1286.37 112.799 1277.79 94.3987 1283.82 77.8188ZM1324.83 58.6933L1296.64 48.4327C1295.61 48.0551 1294.46 48.5906 1294.08 49.628L1283.82 77.8188C1289.85 61.2389 1308.26 52.6587 1324.83 58.6933ZM1302.95 118.834L1331.14 129.094C1332.17 129.472 1333.32 128.936 1333.7 127.899L1343.96 99.7081C1337.93 116.288 1319.53 124.868 1302.95 118.834ZM1306.35 86.1385C1306.36 86.1002 1306.36 86.063 1306.37 86.0273C1307.5 82.9188 1305.9 79.4684 1302.79 78.337C1299.68 77.2056 1296.23 78.8145 1295.1 81.923C1294.38 83.887 1294 85.8929 1293.91 87.8784C1294.76 86.964 1295.77 86.1755 1296.97 85.6161C1300.1 84.1597 1303.59 84.4847 1306.35 86.1385ZM1321.08 85.2846C1321.09 85.3076 1321.11 85.329 1321.12 85.3521C1321.13 85.363 1321.14 85.3709 1321.14 85.3811C1322.54 88.3803 1326.12 89.6821 1329.11 88.2835C1332.06 86.9101 1333.35 83.4371 1332.07 80.4721C1331.21 78.5815 1330.05 76.8303 1328.64 75.2802C1328.69 76.524 1328.53 77.7913 1328.08 79.0279C1326.9 82.268 1324.2 84.5061 1321.08 85.2846ZM1340.2 98.34C1334.92 112.849 1318.82 120.356 1304.31 115.075C1289.8 109.794 1282.3 93.6957 1287.58 79.1869C1292.86 64.678 1308.96 57.1713 1323.47 62.4521C1337.98 67.7328 1345.48 83.8312 1340.2 98.34ZM1336.44 96.9719C1340.97 84.536 1334.53 70.7371 1322.1 66.2108C1309.66 61.6845 1295.86 68.1191 1291.34 80.555C1286.81 92.9909 1293.25 106.79 1305.68 111.316C1318.12 115.842 1331.92 109.408 1336.44 96.9719ZM1321.44 91.3884C1321.42 91.4266 1321.42 91.4639 1321.41 91.4996C1320.28 94.6081 1321.89 98.0585 1324.99 99.1899C1328.1 100.321 1331.55 98.7123 1332.68 95.6038C1333.4 93.6399 1333.78 91.634 1333.87 89.6485C1333.02 90.5629 1332.01 91.3513 1330.81 91.9108C1327.68 93.3672 1324.19 93.0429 1321.44 91.3884ZM1353.03 68.9539L1324.83 58.6933C1341.41 64.7279 1350 83.1282 1343.96 99.7081L1354.22 71.5173C1354.6 70.4799 1354.06 69.3315 1353.03 68.9539ZM1317.37 95.9529C1317.35 95.9655 1317.32 95.9814 1317.3 95.9933C1317.29 95.9981 1317.28 96.0087 1317.27 96.0147C1314.27 97.4132 1312.97 100.99 1314.37 103.989C1315.74 106.934 1319.21 108.228 1322.18 106.948C1324.07 106.086 1325.82 104.929 1327.37 103.52C1326.13 103.56 1324.86 103.399 1323.63 102.949C1320.39 101.769 1318.15 99.0712 1317.37 95.9529ZM1306.7 92.2423C1306.69 92.2186 1306.67 92.1979 1306.66 92.1741C1306.65 92.1639 1306.64 92.1579 1306.64 92.1451C1305.24 89.1459 1301.66 87.8441 1298.66 89.2427C1295.72 90.6161 1294.42 94.0891 1295.7 97.0534C1296.57 98.944 1297.72 100.695 1299.13 102.245C1299.09 101.003 1299.26 99.7356 1299.71 98.4989C1300.88 95.2589 1303.58 93.0207 1306.7 92.2423ZM1311.27 96.3087C1311.23 96.2969 1311.19 96.294 1311.15 96.281C1308.05 95.1496 1304.6 96.7585 1303.46 99.867C1302.33 102.976 1303.94 106.426 1307.05 107.557C1309.01 108.272 1311.02 108.655 1313.01 108.744C1312.09 107.894 1311.3 106.879 1310.74 105.679C1309.29 102.552 1309.61 99.0632 1311.27 96.3087Z" fill="black"/>
</g>
<g clip-path="url(#clip3_5_6)">
<path d="M1112.46 747.614L1112.03 750.076" stroke="black" stroke-width="2" stroke-miterlimit="10"/>
<path d="M1111.6 752.538L1107.04 778.39C1106.8 779.744 1105.5 780.656 1104.14 780.417L1062.29 773.037C1060.93 772.799 1060.02 771.495 1060.26 770.141L1067.64 728.287C1067.88 726.933 1069.18 726.02 1070.54 726.259L1112.39 733.639C1113.74 733.878 1114.66 735.181 1114.42 736.535L1112.9 745.152" stroke="black" stroke-width="2" stroke-miterlimit="10"/>
<path d="M1067.35 758.699L1067.79 756.237" stroke="black" stroke-width="2" stroke-miterlimit="10"/>
<path d="M1068.22 753.775L1071.69 734.079C1071.93 732.725 1073.24 731.813 1074.59 732.051L1106.6 737.695C1107.95 737.934 1108.86 739.237 1108.63 740.591L1102.98 772.597C1102.74 773.951 1101.44 774.864 1100.09 774.625L1068.08 768.982C1066.73 768.743 1065.81 767.44 1066.05 766.085L1066.92 761.161" stroke="black" stroke-width="2" stroke-miterlimit="10"/>
<path d="M1057 767.028L1047.15 765.292" stroke="black" stroke-width="2" stroke-miterlimit="10"/>
<path d="M1059.17 754.718L1049.32 752.981" stroke="black" stroke-width="2" stroke-miterlimit="10"/>
<path d="M1061.34 742.408L1051.49 740.671" stroke="black" stroke-width="2" stroke-miterlimit="10"/>
<path d="M1063.51 730.098L1053.66 728.361" stroke="black" stroke-width="2" stroke-miterlimit="10"/>
<path d="M1121.01 778.315L1111.16 776.579" stroke="black" stroke-width="2" stroke-miterlimit="10"/>
<path d="M1123.18 766.005L1113.33 764.269" stroke="black" stroke-width="2" stroke-miterlimit="10"/>
<path d="M1125.35 753.695L1115.51 751.958" stroke="black" stroke-width="2" stroke-miterlimit="10"/>
<path d="M1127.52 741.385L1117.68 739.648" stroke="black" stroke-width="2" stroke-miterlimit="10"/>
<path d="M1073.65 723L1075.38 713.152" stroke="black" stroke-width="2" stroke-miterlimit="10"/>
<path d="M1085.96 725.171L1087.69 715.323" stroke="black" stroke-width="2" stroke-miterlimit="10"/>
<path d="M1098.27 727.341L1100.01 717.493" stroke="black" stroke-width="2" stroke-miterlimit="10"/>
<path d="M1110.58 729.512L1112.32 719.664" stroke="black" stroke-width="2" stroke-miterlimit="10"/>
<path d="M1062.36 787.013L1064.1 777.165" stroke="black" stroke-width="2" stroke-miterlimit="10"/>
<path d="M1074.67 789.183L1076.41 779.335" stroke="black" stroke-width="2" stroke-miterlimit="10"/>
<path d="M1086.98 791.354L1088.72 781.506" stroke="black" stroke-width="2" stroke-miterlimit="10"/>
<path d="M1099.29 793.524L1101.03 783.676" stroke="black" stroke-width="2" stroke-miterlimit="10"/>
<path d="M1073 769.85L1076.48 750.154" stroke="black" stroke-width="2" stroke-miterlimit="10" stroke-linejoin="round"/>
<path d="M1089.22 749.862C1089.46 748.503 1088.55 747.206 1087.19 746.966C1085.83 746.726 1084.54 747.634 1084.3 748.994C1084.06 750.354 1084.96 751.65 1086.32 751.89C1087.68 752.13 1088.98 751.222 1089.22 749.862Z" stroke="black" stroke-width="2" stroke-miterlimit="10"/>
<path d="M1090.31 765.286C1090.55 763.926 1089.64 762.629 1088.28 762.389C1086.92 762.15 1085.62 763.058 1085.38 764.417C1085.14 765.777 1086.05 767.074 1087.41 767.313C1088.77 767.553 1090.07 766.645 1090.31 765.286Z" stroke="black" stroke-width="2" stroke-miterlimit="10"/>
<path d="M1072.27 737.989L1088.28 740.811L1086.98 748.197" stroke="black" stroke-width="2" stroke-miterlimit="10" stroke-linejoin="round"/>
<path d="M1079.16 770.935L1081.76 756.163L1094.07 758.334L1096.24 746.024" stroke="black" stroke-width="2" stroke-miterlimit="10" stroke-linejoin="round"/>
<path d="M1106.24 754.132L1100.08 753.047L1097.69 766.588L1090.31 765.286" stroke="black" stroke-width="2" stroke-miterlimit="10" stroke-linejoin="round"/>
<path d="M1094.65 740.665L1093.78 745.589L1098.71 746.458L1099.57 741.534L1094.65 740.665Z" stroke="black" stroke-width="2" stroke-miterlimit="10" stroke-linejoin="round"/>
<path d="M1074.88 744.796L1074.01 749.72L1078.94 750.588L1079.81 745.664L1074.88 744.796Z" stroke="black" stroke-width="2" stroke-miterlimit="10" stroke-linejoin="round"/>
</g>
<g clip-path="url(#clip4_5_6)">
<path d="M369.517 51.6094L371.509 51.4351C373.094 51.2964 374.67 51.7932 375.889 52.8161C377.108 53.8389 377.871 55.3042 378.009 56.8894C378.148 58.4745 377.651 60.05 376.628 61.269C375.606 62.488 374.14 63.2508 372.555 63.3895L370.563 63.5638L373.003 91.4572L492.546 80.9985L490.106 53.1051L488.114 53.2794C486.529 53.4181 484.953 52.9213 483.734 51.8985C482.515 50.8756 481.752 49.4103 481.614 47.8252C481.475 46.24 481.972 44.6645 482.994 43.4455C484.017 42.2266 485.483 41.4637 487.068 41.3251L489.06 41.1508L487.84 27.204L368.297 37.6627L369.517 51.6094ZM384.21 86.4614L376.639 87.1238L375.768 77.1619L383.339 76.4995L384.21 86.4614ZM395.766 85.4504L388.195 86.1128L387.323 76.1509L394.895 75.4885L395.766 85.4504ZM407.322 84.4394L399.751 85.1018L398.879 75.1399L406.45 74.4775L407.322 84.4394ZM418.878 83.4284L411.307 84.0908L410.435 74.1289L418.006 73.4665L418.878 83.4284ZM430.434 82.4174L422.863 83.0798L421.991 73.1179L429.562 72.4555L430.434 82.4174ZM441.99 81.4064L434.418 82.0688L433.547 72.1068L441.118 71.4445L441.99 81.4064ZM453.545 80.3954L445.974 81.0578L445.103 71.0958L452.674 70.4335L453.545 80.3954ZM465.101 79.3844L457.53 80.0468L456.659 70.0848L464.23 69.4225L465.101 79.3844ZM476.657 78.3734L469.086 79.0358L468.215 69.0738L475.786 68.4114L476.657 78.3734ZM488.213 77.3624L480.642 78.0248L479.77 68.0628L487.341 67.4004L488.213 77.3624ZM372.63 41.2989L484.204 31.5374L484.744 37.7138C482.532 38.3681 480.614 39.767 479.316 41.6734C478.017 43.58 477.418 45.8766 477.619 48.1747C477.82 50.4727 478.809 52.6303 480.419 54.2825C482.029 55.9344 484.16 56.979 486.452 57.2393L486.993 63.4157L375.419 73.1771L374.879 67.0007C377.091 66.3464 379.008 64.9476 380.307 63.0411C381.606 61.1345 382.205 58.8379 382.004 56.5399C381.803 54.2418 380.814 52.0843 379.204 50.4321C377.594 48.7801 375.462 47.7355 373.17 47.4753L372.63 41.2989Z" fill="black"/>
<path d="M400.872 42.8433L384.933 44.2378L387.025 68.1464L402.964 66.752L400.872 42.8433ZM398.631 63.1158L390.661 63.813L389.267 47.8739L397.236 47.1767L398.631 63.1158Z" fill="black"/>
<path d="M420.796 41.1002L404.857 42.4947L406.949 66.4033L422.888 65.0089L420.796 41.1002ZM418.554 61.3727L410.585 62.0699L409.19 46.1308L417.16 45.4336L418.554 61.3727Z" fill="black"/>
<path d="M452.674 38.3112L436.735 39.7057L438.827 63.6144L454.766 62.2199L452.674 38.3112ZM450.433 58.5837L442.463 59.281L441.069 43.3418L449.038 42.6446L450.433 58.5837Z" fill="black"/>
<path d="M472.598 36.5681L456.659 37.9626L458.751 61.8712L474.69 60.4768L472.598 36.5681ZM470.357 56.8406L462.387 57.5378L460.993 41.5987L468.962 40.9015L470.357 56.8406Z" fill="black"/>
</g>
<g clip-path="url(#clip5_5_6)">
<path d="M1321.29 348.56L1262.2 358.979L1274.93 431.198L1334.02 420.779L1321.29 348.56Z" stroke="black" stroke-width="4"/>
<path d="M1298.91 402.555C1299.38 402.503 1299.84 402.436 1300.31 402.353C1312.28 400.243 1320.27 388.833 1318.16 376.867C1316.05 364.902 1304.64 356.912 1292.67 359.022C1280.7 361.132 1272.71 372.542 1274.82 384.508C1276.29 392.832 1282.26 399.232 1289.79 401.646" stroke="black" stroke-width="4"/>
<path d="M1297.76 387.909C1301.75 387.206 1304.42 383.403 1303.71 379.414C1303.01 375.425 1299.21 372.762 1295.22 373.466C1291.23 374.169 1288.56 377.972 1289.27 381.961C1289.97 385.949 1293.77 388.613 1297.76 387.909Z" stroke="black" stroke-width="4"/>
<path d="M1317.19 356.051C1317.92 355.924 1318.4 355.232 1318.27 354.507C1318.15 353.782 1317.46 353.297 1316.73 353.425C1316 353.553 1315.52 354.245 1315.65 354.97C1315.78 355.695 1316.47 356.179 1317.19 356.051Z" stroke="black" stroke-width="4"/>
<path d="M1328.07 417.766C1328.8 417.638 1329.28 416.947 1329.16 416.221C1329.03 415.496 1328.34 415.012 1327.61 415.14C1326.89 415.268 1326.4 415.959 1326.53 416.685C1326.66 417.41 1327.35 417.894 1328.07 417.766Z" stroke="black" stroke-width="4"/>
<path d="M1268.61 364.618C1269.33 364.49 1269.82 363.799 1269.69 363.073C1269.56 362.348 1268.87 361.864 1268.15 361.992C1267.42 362.12 1266.94 362.811 1267.06 363.537C1267.19 364.262 1267.88 364.746 1268.61 364.618Z" stroke="black" stroke-width="4"/>
<path d="M1279.49 426.333C1280.22 426.205 1280.7 425.513 1280.57 424.788C1280.44 424.063 1279.75 423.579 1279.03 423.707C1278.3 423.834 1277.82 424.526 1277.95 425.251C1278.07 425.976 1278.77 426.461 1279.49 426.333Z" stroke="black" stroke-width="4"/>
<path d="M1284.2 414.67C1284.93 414.543 1285.41 413.851 1285.29 413.126C1285.16 412.401 1284.47 411.916 1283.74 412.044C1283.02 412.172 1282.53 412.864 1282.66 413.589C1282.79 414.314 1283.48 414.798 1284.2 414.67Z" stroke="black" stroke-width="4"/>
<path fill-rule="evenodd" clip-rule="evenodd" d="M1289.37 415.125L1307.72 388.831L1282.08 408.087C1281.59 408.345 1281.13 408.684 1280.72 409.105C1278.68 411.223 1278.74 414.6 1280.86 416.646C1282.97 418.692 1286.35 418.633 1288.4 416.514C1288.8 416.094 1289.13 415.624 1289.37 415.125Z" stroke="black" stroke-width="4" stroke-linecap="round" stroke-linejoin="round"/>
</g>
<g clip-path="url(#clip6_5_6)">
<path d="M224.154 394.334L178.838 373.203C177.636 372.643 176.261 372.583 175.015 373.036C173.769 373.49 172.754 374.42 172.194 375.622L145.428 433.021C144.867 434.223 144.807 435.598 145.261 436.844C145.714 438.09 146.644 439.105 147.846 439.666L193.162 460.797C194.363 461.357 195.739 461.417 196.985 460.964C198.231 460.51 199.246 459.58 199.806 458.378L226.572 400.979C227.132 399.777 227.192 398.402 226.739 397.156C226.285 395.909 225.355 394.895 224.154 394.334ZM155.297 439.462L157.41 434.931L160.431 436.339L158.318 440.871L155.297 439.462ZM161.339 442.28L163.452 437.748L166.473 439.157L164.36 443.688L161.339 442.28ZM167.381 445.097L169.494 440.566L172.515 441.974L170.402 446.506L167.381 445.097ZM173.423 447.915L175.536 443.383L178.557 444.792L176.444 449.323L173.423 447.915ZM179.465 450.732L181.578 446.201L184.599 447.609L182.486 452.141L179.465 450.732ZM185.507 453.55L187.62 449.018L190.641 450.427L188.528 454.958L185.507 453.55ZM196.785 456.97C196.598 457.37 196.26 457.68 195.845 457.831C195.429 457.982 194.971 457.963 194.57 457.776L191.549 456.367L193.662 451.835C194.036 451.034 194.076 450.117 193.774 449.287C193.471 448.456 192.851 447.779 192.05 447.406L158.819 431.91C158.018 431.536 157.101 431.496 156.27 431.798C155.439 432.101 154.763 432.721 154.389 433.522L152.276 438.054L149.255 436.645C148.854 436.458 148.544 436.12 148.393 435.704C148.242 435.289 148.262 434.831 148.449 434.43L175.215 377.03C175.401 376.63 175.74 376.32 176.155 376.169C176.57 376.017 177.029 376.037 177.429 376.224L222.745 397.355C223.145 397.542 223.455 397.88 223.607 398.296C223.758 398.711 223.738 399.169 223.551 399.57L196.785 456.97Z" fill="black"/>
<path d="M177.633 383.675C178.467 384.064 179.459 383.703 179.848 382.869C180.237 382.035 179.876 381.043 179.042 380.654C178.208 380.265 177.216 380.626 176.827 381.46C176.438 382.294 176.799 383.286 177.633 383.675Z" fill="black"/>
<path d="M216.906 401.989C217.741 402.378 218.732 402.017 219.121 401.182C219.51 400.348 219.149 399.357 218.315 398.967C217.481 398.578 216.489 398.939 216.1 399.774C215.711 400.608 216.072 401.599 216.906 401.989Z" fill="black"/>
<path d="M157.207 427.48C158.041 427.869 159.032 427.508 159.421 426.674C159.81 425.84 159.45 424.848 158.615 424.459C157.781 424.07 156.789 424.431 156.4 425.265C156.011 426.099 156.372 427.091 157.207 427.48Z" fill="black"/>
<path d="M196.48 445.793C197.314 446.182 198.306 445.822 198.695 444.987C199.084 444.153 198.723 443.161 197.889 442.772C197.054 442.383 196.063 442.744 195.674 443.579C195.285 444.413 195.646 445.404 196.48 445.793Z" fill="black"/>
<path d="M181.265 407.436C181.666 407.623 182.124 407.643 182.539 407.492C182.955 407.341 183.293 407.031 183.48 406.63C183.667 406.229 183.687 405.771 183.535 405.356C183.384 404.94 183.074 404.602 182.674 404.415L179.653 403.006C178.851 402.633 177.935 402.593 177.104 402.895C176.273 403.198 175.596 403.817 175.223 404.619L174.519 406.129C174.145 406.93 174.105 407.847 174.407 408.678C174.71 409.509 175.33 410.185 176.131 410.559L177.641 411.263L176.937 412.774L173.916 411.365C173.515 411.178 173.057 411.158 172.642 411.309C172.226 411.461 171.888 411.771 171.701 412.171C171.514 412.572 171.494 413.03 171.645 413.446C171.797 413.861 172.107 414.199 172.507 414.386L175.528 415.795C176.329 416.168 177.246 416.208 178.077 415.906C178.908 415.604 179.584 414.984 179.958 414.183L180.662 412.672C181.036 411.871 181.076 410.954 180.774 410.123C180.471 409.292 179.851 408.616 179.05 408.242L177.54 407.538L178.244 406.027L181.265 407.436Z" fill="black"/>
<path d="M190.328 411.662C190.728 411.849 191.187 411.869 191.602 411.718C192.018 411.567 192.356 411.257 192.543 410.856C192.73 410.456 192.75 409.997 192.598 409.582C192.447 409.166 192.137 408.828 191.737 408.641L188.716 407.233C187.914 406.859 186.998 406.819 186.167 407.121C185.336 407.424 184.659 408.044 184.286 408.845L183.581 410.355C183.208 411.157 183.168 412.073 183.47 412.904C183.773 413.735 184.393 414.412 185.194 414.785L186.704 415.489L186 417L182.979 415.591C182.578 415.404 182.12 415.384 181.705 415.536C181.289 415.687 180.951 415.997 180.764 416.397C180.577 416.798 180.557 417.257 180.708 417.672C180.86 418.087 181.17 418.425 181.57 418.612L184.591 420.021C185.392 420.395 186.309 420.435 187.14 420.132C187.971 419.83 188.647 419.21 189.021 418.409L189.725 416.898C190.099 416.097 190.139 415.18 189.837 414.349C189.534 413.519 188.914 412.842 188.113 412.468L186.603 411.764L187.307 410.254L190.328 411.662Z" fill="black"/>
<path d="M199.289 412.163L196.268 410.754C195.867 410.568 195.409 410.548 194.994 410.699C194.578 410.85 194.24 411.16 194.053 411.561L189.827 420.624C189.64 421.024 189.62 421.483 189.771 421.898C189.923 422.313 190.233 422.652 190.633 422.838L193.654 424.247C194.856 424.808 196.231 424.868 197.477 424.414C198.723 423.961 199.738 423.031 200.299 421.829L201.708 418.808C202.268 417.606 202.328 416.231 201.874 414.985C201.421 413.738 200.491 412.723 199.289 412.163ZM197.278 420.42C197.091 420.821 196.753 421.131 196.337 421.282C195.922 421.433 195.464 421.413 195.063 421.226L193.552 420.522L196.37 414.48L197.88 415.184C198.281 415.371 198.591 415.709 198.742 416.125C198.893 416.54 198.873 416.998 198.687 417.399L197.278 420.42Z" fill="black"/>
<path d="M202.819 432.199L211.272 414.073C211.645 413.271 211.685 412.355 211.383 411.524C211.08 410.693 210.46 410.016 209.659 409.643L176.428 394.147C175.627 393.773 174.71 393.733 173.879 394.036C173.048 394.338 172.372 394.958 171.998 395.759L163.546 413.885C163.172 414.687 163.132 415.603 163.435 416.434C163.737 417.265 164.357 417.941 165.158 418.315L198.389 433.811C199.191 434.185 200.107 434.225 200.938 433.922C201.769 433.62 202.446 433 202.819 432.199ZM166.567 415.294L175.019 397.168L208.251 412.664L199.798 430.79L166.567 415.294Z" fill="black"/>
</g>
<g clip-path="url(#clip7_5_6)">
<path d="M1041.52 43.7007C1038.2 42.8089 1034.76 44.7917 1033.87 48.1201C1032.98 51.4485 1034.96 54.8829 1038.29 55.7748C1041.62 56.6666 1045.05 54.6838 1045.94 51.3554C1046.84 48.0269 1044.85 44.5925 1041.52 43.7007ZM1039.37 51.7501C1038.26 51.453 1037.6 50.3073 1037.9 49.1985C1038.19 48.0897 1039.34 47.4283 1040.45 47.7254C1041.56 48.0225 1042.22 49.1681 1041.92 50.2769C1041.62 51.3857 1040.48 52.0472 1039.37 51.7501ZM1036.17 31.4821L1052.27 35.7958C1053.38 36.0934 1054.52 35.4335 1054.82 34.3227L1056.98 26.2733C1057.28 25.1625 1056.62 24.0194 1055.51 23.7217L1039.41 19.4081C1038.3 19.1104 1037.15 19.7704 1036.86 20.8812L1034.7 28.9306C1034.4 30.0414 1035.06 31.1845 1036.17 31.4821ZM1040.34 23.972L1052.41 27.2072L1051.34 31.2319L1039.26 27.9967L1040.34 23.972ZM1072.39 41.1879L1108.62 50.8936C1109.73 51.1912 1110.87 50.5313 1111.17 49.4204L1113.32 41.3711C1113.62 40.2602 1112.96 39.1171 1111.85 38.8195L1075.63 29.1138C1074.52 28.8161 1073.38 29.4761 1073.08 30.5869L1070.92 38.6363C1070.62 39.7471 1071.28 40.8902 1072.39 41.1879ZM1100.71 40.1482L1108.76 42.305L1107.68 46.3297L1099.63 44.1729L1100.71 40.1482ZM1088.64 36.9129L1096.69 39.0697L1095.61 43.0944L1087.56 40.9376L1088.64 36.9129ZM1076.56 33.6777L1084.61 35.8345L1083.53 39.8592L1075.48 37.7024L1076.56 33.6777ZM1122.06 32.9269L1033.51 9.20187C1032.4 8.90422 1031.26 9.56419 1030.96 10.675L1016.94 62.996C1016.65 64.1068 1017.31 65.2499 1018.42 65.5475L1106.96 89.2726C1108.07 89.5703 1109.21 88.9103 1109.51 87.7995L1123.53 35.4785C1123.83 34.3677 1123.17 33.2246 1122.06 32.9269ZM1106.03 84.7087L1021.51 62.0621L1034.45 13.7658L1118.97 36.4124L1106.03 84.7087ZM1064.84 69.3607L1101.07 79.0664C1102.18 79.3641 1103.32 78.7041 1103.62 77.5933L1105.78 69.5439C1106.07 68.4331 1105.41 67.29 1104.3 66.9923L1068.08 57.2866C1066.97 56.989 1065.83 57.649 1065.53 58.7598L1063.37 66.8091C1063.07 67.92 1063.73 69.0631 1064.84 69.3607ZM1093.16 68.321L1101.21 70.4778L1100.13 74.5025L1092.08 72.3457L1093.16 68.321ZM1081.09 65.0858L1089.14 67.2426L1088.06 71.2673L1080.01 69.1105L1081.09 65.0858ZM1069.01 61.8505L1077.06 64.0073L1075.99 68.032L1067.94 65.8752L1069.01 61.8505ZM1068.62 55.2743L1104.84 64.98C1105.95 65.2776 1107.1 64.6177 1107.39 63.5069L1109.55 55.4575C1109.85 54.3467 1109.19 53.2036 1108.08 52.9059L1071.85 43.2002C1070.74 42.9026 1069.6 43.5625 1069.3 44.6733L1067.15 52.7227C1066.85 53.8335 1067.51 54.9766 1068.62 55.2743ZM1096.94 54.2346L1104.99 56.3914L1103.91 60.4161L1095.86 58.2593L1096.94 54.2346ZM1084.86 50.9993L1092.91 53.1562L1091.83 57.1809L1083.78 55.024L1084.86 50.9993ZM1072.79 47.7641L1080.84 49.9209L1079.76 53.9456L1071.71 51.7888L1072.79 47.7641Z" fill="black"/>
</g>
<g clip-path="url(#clip8_5_6)">
<path d="M435.391 783.787C424.566 777.537 420.906 763.877 427.156 753.051L440.906 729.236C445.031 722.091 454.251 719.62 461.396 723.745L474.386 731.245C481.531 735.37 484.002 744.591 479.877 751.736L466.127 775.551C459.877 786.377 446.216 790.037 435.391 783.787Z" stroke="black" stroke-width="6" stroke-miterlimit="10" stroke-linecap="round" stroke-linejoin="round"/>
<path d="M467.891 727.495L461.641 738.32" stroke="black" stroke-width="6" stroke-miterlimit="10" stroke-linecap="round" stroke-linejoin="round"/>
<path d="M452.891 753.476C450.509 752.101 449.686 749.027 451.061 746.646L454.811 740.151C456.186 737.769 459.259 736.945 461.641 738.32C464.022 739.695 464.846 742.769 463.471 745.151L459.721 751.646C458.346 754.027 455.272 754.851 452.891 753.476Z" stroke="black" stroke-width="6" stroke-miterlimit="10" stroke-linecap="round" stroke-linejoin="round"/>
</g>
<g clip-path="url(#clip9_5_6)">
<path d="M1319.28 586.357C1316.52 586.357 1314.16 587.333 1312.21 589.285L1220.28 681.208C1218.33 683.16 1217.36 685.517 1217.36 688.279C1217.36 691.041 1218.33 693.399 1220.28 695.35L1269.78 744.847C1271.73 746.8 1274.09 747.774 1276.85 747.775C1279.62 747.775 1281.97 746.8 1283.92 744.848L1375.85 652.925C1377.8 650.973 1378.77 648.615 1378.77 645.852C1378.77 643.091 1377.8 640.734 1375.85 638.781L1326.35 589.284C1324.4 587.333 1322.04 586.357 1319.28 586.357ZM1368.78 645.853L1276.85 737.776L1227.36 688.279L1319.28 596.356L1368.78 645.853Z" fill="black"/>
<path d="M1277.74 722.75L1283.04 717.447C1283.63 716.857 1283.63 716.267 1283.04 715.679L1277.74 710.376C1277.15 709.788 1276.56 709.786 1275.97 710.376L1270.66 715.679C1270.08 716.268 1270.08 716.859 1270.66 717.447L1275.97 722.75C1276.56 723.338 1277.15 723.339 1277.74 722.75Z" fill="black"/>
<path d="M1263.59 708.609L1275.97 696.235C1276.56 695.646 1276.56 695.054 1275.97 694.466L1270.67 689.162C1270.08 688.573 1269.49 688.574 1268.9 689.163L1256.52 701.537C1255.93 702.126 1255.93 702.716 1256.52 703.305L1261.83 708.608C1262.41 709.197 1263.01 709.198 1263.59 708.609Z" fill="black"/>
<path d="M1249.45 694.466L1254.75 689.163C1255.34 688.574 1255.34 687.984 1254.75 687.395L1249.45 682.092C1248.86 681.503 1248.27 681.503 1247.68 682.092L1242.38 687.395C1241.79 687.984 1241.79 688.574 1242.38 689.163L1247.68 694.466C1248.27 695.055 1248.86 695.055 1249.45 694.466Z" fill="black"/>
<path d="M1332.54 653.807L1284.81 701.536C1284.22 702.126 1284.22 702.716 1284.81 703.305L1290.11 708.608C1290.7 709.196 1291.29 709.197 1291.88 708.608L1339.61 660.88C1340.2 660.291 1340.2 659.7 1339.61 659.111L1334.31 653.809C1333.72 653.219 1333.13 653.219 1332.54 653.807Z" fill="black"/>
<path d="M1283.04 687.395C1283.63 687.984 1284.22 687.985 1284.81 687.396L1290.11 682.092C1290.7 681.503 1290.7 680.913 1290.11 680.324L1284.81 675.021C1284.22 674.432 1283.63 674.431 1283.04 675.02L1277.74 680.324C1277.15 680.913 1277.15 681.502 1277.74 682.091L1283.04 687.395Z" fill="black"/>
<path d="M1263.59 680.323L1268.9 675.021C1269.49 674.431 1269.49 673.841 1268.9 673.252L1263.59 667.949C1263.01 667.36 1262.42 667.361 1261.83 667.949L1256.52 673.252C1255.93 673.841 1255.93 674.431 1256.52 675.021L1261.83 680.323C1262.42 680.912 1263.01 680.912 1263.59 680.323Z" fill="black"/>
<path d="M1297.18 673.253C1297.77 673.842 1298.36 673.843 1298.95 673.254L1304.25 667.951C1304.84 667.361 1304.84 666.77 1304.25 666.182L1298.95 660.878C1298.36 660.289 1297.77 660.29 1297.18 660.879L1291.88 666.182C1291.29 666.771 1291.29 667.361 1291.88 667.95L1297.18 673.253Z" fill="black"/>
<path d="M1277.74 666.182L1283.04 660.879C1283.63 660.29 1283.63 659.7 1283.04 659.111L1277.74 653.808C1277.15 653.219 1276.56 653.219 1275.97 653.808L1270.67 659.111C1270.08 659.7 1270.08 660.29 1270.67 660.879L1275.97 666.182C1276.56 666.771 1277.15 666.771 1277.74 666.182Z" fill="black"/>
<path d="M1311.32 659.111C1311.91 659.7 1312.5 659.7 1313.09 659.112L1318.4 653.809C1318.98 653.219 1318.98 652.629 1318.39 652.041L1313.09 646.737C1312.5 646.148 1311.91 646.148 1311.32 646.737L1306.02 652.04C1305.43 652.628 1305.43 653.218 1306.02 653.807L1311.32 659.111Z" fill="black"/>
<path d="M1346.68 639.666L1341.38 644.968C1340.79 645.558 1340.79 646.148 1341.38 646.738L1346.68 652.04C1347.27 652.628 1347.86 652.629 1348.45 652.04L1353.75 646.738C1354.34 646.148 1354.34 645.558 1353.75 644.968L1348.45 639.666C1347.86 639.077 1347.27 639.076 1346.68 639.666Z" fill="black"/>
<path d="M1291.88 652.04L1297.18 646.736C1297.77 646.147 1297.77 645.558 1297.18 644.968L1291.88 639.666C1291.29 639.076 1290.7 639.077 1290.11 639.665L1284.81 644.968C1284.22 645.558 1284.22 646.147 1284.81 646.736L1290.11 652.039C1290.7 652.628 1291.29 652.629 1291.88 652.04Z" fill="black"/>
<path d="M1306.02 637.898L1311.32 632.595C1311.91 632.006 1311.91 631.415 1311.32 630.826L1306.02 625.524C1305.43 624.934 1304.84 624.936 1304.25 625.524L1298.95 630.826C1298.36 631.416 1298.36 632.006 1298.95 632.595L1304.25 637.898C1304.84 638.487 1305.43 638.487 1306.02 637.898Z" fill="black"/>
<path d="M1325.47 644.969C1326.05 645.558 1326.64 645.56 1327.23 644.97L1339.61 632.596C1340.2 632.007 1340.2 631.415 1339.61 630.827L1320.16 611.381C1319.57 610.792 1318.98 610.793 1318.39 611.382L1313.09 616.684C1312.5 617.274 1312.5 617.864 1313.09 618.453L1326.35 631.711L1320.16 637.898C1319.57 638.487 1319.57 639.076 1320.16 639.666L1325.47 644.969L1325.47 644.969Z" fill="black"/>
</g>
</g>
<defs>
<linearGradient id="paint0_linear_5_6" x1="1480" y1="400" x2="1.07932e-05" y2="400" gradientUnits="userSpaceOnUse">
<stop stop-color="#9E0000"/>
<stop offset="0.336458" stop-color="#1B3DB6"/>
<stop offset="0.503125" stop-color="#121212"/>
<stop offset="0.659375" stop-color="#1B3DB6"/>
<stop offset="1" stop-color="#9E0000"/>
</linearGradient>
<clipPath id="clip0_5_6">
<rect width="1480" height="800" fill="white"/>
</clipPath>
<clipPath id="clip1_5_6">
<rect width="128" height="128" fill="white" transform="translate(168.51 586) rotate(45)"/>
</clipPath>
<clipPath id="clip2_5_6">
<rect width="96" height="96" fill="white" transform="translate(1283.83 31) rotate(20)"/>
</clipPath>
<clipPath id="clip3_5_6">
<rect width="80" height="80" fill="white" transform="translate(1041 785.785) rotate(-80)"/>
</clipPath>
<clipPath id="clip4_5_6">
<rect width="128" height="128" fill="white" transform="translate(361 0.155945) rotate(-5)"/>
</clipPath>
<clipPath id="clip5_5_6">
<rect width="80" height="80" fill="white" transform="translate(1251 356.892) rotate(-10)"/>
</clipPath>
<clipPath id="clip6_5_6">
<rect width="80" height="80" fill="white" transform="translate(166.652 363.843) rotate(25)"/>
</clipPath>
<clipPath id="clip7_5_6">
<rect width="100" height="100" fill="white" transform="translate(1034.88 -12) rotate(15)"/>
</clipPath>
<clipPath id="clip8_5_6">
<rect width="80" height="80" fill="white" transform="translate(437 701) rotate(30)"/>
</clipPath>
<clipPath id="clip9_5_6">
<rect width="150" height="150" fill="white" transform="translate(1192 667.066) rotate(-45)"/>
</clipPath>
</defs>
</svg>
